Shapiro.glyphspackage
{
glyphname = exclam;
layers = (
{
backgroundImage = {
crop = (1204.847,324.635,11.068,83.013);
imagePath = "img/roman/roman-symbols.png";
locked = 1;
pos = (-21771,-6466);
scale = (18.0695,18.0695);
};
layerId = m01;
shapes = (
{
attr = {
lineCapEnd = 1;
lineCapStart = 1;
strokeWidth = 50;
};
closed = 0;
nodes = (
(104,-121,l),
(70,-62,o),
(58,-144,o),
(104,-144,cs),
(144,-144,o),
(143,-87,o),
(92,-75,cs)
);
},
{
attr = {
lineCapEnd = 1;
lineCapStart = 1;
strokeWidth = 50;
};
closed = 0;
nodes = (
(105,840,l),
(103,693,o),
(103,273,o),
(98,166,cs)
);
}
);
width = 200;
}
);
unicode = 33;
}
{
glyphname = percent;
layers = (
{
backgroundImage = {
crop = (713.914,324.187,45.278,84.895);
imagePath = "img/roman/roman-symbols.png";
locked = 1;
pos = (-12614,-6328);
scale = (17.6688,17.6688);
};
layerId = m01;
shapes = (
{
attr = {
lineCapEnd = 1;
lineCapStart = 1;
strokeWidth = 50;
};
closed = 0;
nodes = (
(40,-43,l),
(756,692,l)
);
},
{
attr = {
strokeWidth = 50;
};
closed = 1;
nodes = (
(467,300,o),
(439,219,o),
(430,121,c),
(430,68,o),
(442,22,o),
(512,0,cs),
(608,-30,o),
(662,51,o),
(662,148,cs),
(662,256,o),
(613,273,o),
(581,279,cs)
);
},
{
attr = {
strokeWidth = 50;
};
closed = 1;
nodes = (
(430,652,o),
(436,770,o),
(349,783,cs),
(273,794,o),
(207,674,o),
(207,611,cs),
(207,587,o),
(216,544,o),
(266,530,cs),
(317,516,o),
(396,532,o),
(422,624,cs)
);
},
{
attr = {
lineCapEnd = 1;
lineCapStart = 1;
strokeWidth = 50;
};
closed = 0;
nodes = (
(426,675,l),
(443,646,o),
(488,578,o),
(644,578,c)
);
}
);
width = 800;
}
);
unicode = 37;
}
{
glyphname = parenleft;
layers = (
{
backgroundImage = {
crop = (130.765,225.789,36.408,91.019);
imagePath = "img/roman/roman-symbols.png";
locked = 1;
pos = (-2155,-4321);
scale = (16.48,16.48);
};
layerId = m01;
shapes = (
{
attr = {
lineCapEnd = 1;
lineCapStart = 1;
strokeWidth = 50;
};
closed = 0;
nodes = (
(431,820,l),
(107,671,o),
(82,21,o),
(404,-130,cs)
);
}
);
width = 600;
}
);
unicode = 40;
}
{
glyphname = parenright;
layers = (
{
backgroundImage = {
crop = (420.328,220.874,36.408,91.019);
imagePath = "img/roman/roman-symbols.png";
locked = 1;
pos = (-6927,-4240);
scale = (16.48,16.48);
};
layerId = m01;
shapes = (
{
attr = {
lineCapEnd = 1;
lineCapStart = 1;
strokeWidth = 50;
};
closed = 0;
nodes = (
(165,871,l),
(332,700,o),
(509,142,o),
(221,-69,cs)
);
}
);
width = 600;
}
);
unicode = 41;
}
{
glyphname = asterisk;
layers = (
{
backgroundImage = {
crop = (297.998,127.973,36.408,91.019);
imagePath = "img/roman/roman-symbols.png";
locked = 1;
pos = (-4911,-2709);
scale = (16.48,16.48);
};
layerId = m01;
shapes = (
{
attr = {
lineCapEnd = 1;
lineCapStart = 1;
strokeWidth = 50;
};
closed = 0;
nodes = (
(296,766,l),
(307,458,l)
);
},
{
attr = {
lineCapEnd = 1;
lineCapStart = 1;
strokeWidth = 50;
};
closed = 0;
nodes = (
(429,710,l),
(162,549,l)
);
},
{
attr = {
lineCapEnd = 1;
lineCapStart = 1;
strokeWidth = 50;
};
closed = 0;
nodes = (
(159,705,l),
(453,556,l)
);
}
);
width = 600;
}
);
unicode = 42;
}
{
glyphname = comma;
layers = (
{
backgroundImage = {
crop = (315,706.267,40,100);
imagePath = "img/roman/roman-lower-case.png";
pos = (-4725,-11194);
scale = (15,15);
};
layerId = m01;
shapes = (
{
attr = {
lineCapEnd = 1;
lineCapStart = 1;
strokeWidth = 50;
};
closed = 0;
nodes = (
(284,138,l),
(315,113,o),
(328,78,o),
(317,40,cs),
(310,14,o),
(297,-14,o),
(241,-76,cs)
);
}
);
width = 600;
}
);
unicode = 44;
}
{
glyphname = period;
layers = (
{
backgroundImage = {
imagePath = "img/roman/roman-symbols.png";
pos = (-3013,-1275);
scale = (16.48,16.48);
};
layerId = m01;
shapes = (
{
attr = {
lineCapEnd = "1";
lineCapStart = "1";
strokeWidth = 50;
};
closed = 0;
nodes = (
(100,36,l),
(56,85,o),
(69,4,o),
(107,13,cs),
(139,22,o),
(122,77,o),
(78,77,cs)
);
}
);
width = 198;
}
);
unicode = 46;
}
{
glyphname = zero;
layers = (
{
backgroundImage = {
crop = (31.189,0.182,36.408,91.019);
imagePath = "img/roman/roman-numbers.png";
locked = 1;
pos = (-514,-603);
scale = (16.48,16.48);
};
layerId = m01;
shapes = (
{
attr = {
strokeWidth = 50;
};
closed = 1;
nodes = (
(165,808,o),
(85,599,o),
(85,442,cs),
(85,332,o),
(125,94,o),
(286,48,cs),
(444,3,o),
(519,204,o),
(519,364,cs),
(519,450,o),
(506,744,o),
(329,777,cs)
);
}
);
width = 600;
}
);
unicode = 48;
}
{
glyphname = one;
layers = (
{
backgroundImage = {
crop = (67.112,80.704,36.408,91.019);
imagePath = "img/roman/roman-numbers.png";
locked = 1;
pos = (-1106,-1930);
scale = (16.48,16.48);
};
layerId = m01;
shapes = (
{
attr = {
lineCapEnd = 1;
lineCapStart = 1;
strokeWidth = 50;
};
closed = 0;
nodes = (
(331,47,l),
(331,272,o),
(337,341,o),
(347,576,cs),
(360,897,o),
(294,653,o),
(157,480,cs)
);
}
);
width = 600;
}
);
unicode = 49;
}
{
glyphname = two;
layers = (
{
backgroundImage = {
crop = (109.345,0.607,36.408,91.019);
imagePath = "img/roman/roman-numbers.png";
locked = 1;
pos = (-1802,-610);
scale = (16.48,16.48);
};
layerId = m01;
shapes = (
{
attr = {
lineCapEnd = 1;
lineCapStart = 1;
strokeWidth = 50;
};
closed = 0;
nodes = (
(85,528,l),
(155,717,o),
(302,737,o),
(351,736,cs),
(442,734,o),
(523,658,o),
(500,565,cs),
(442,334,o),
(147,296,o),
(109,49,c)
);
},
{
attr = {
lineCapEnd = 1;
lineCapStart = 1;
strokeWidth = 50;
};
closed = 0;
nodes = (
(115,56,l),
(169,119,o),
(273,51,o),
(321,42,cs),
(369,33,o),
(427,27,o),
(513,85,cs)
);
}
);
width = 600;
}
);
unicode = 50;
}
{
glyphname = three;
layers = (
{
backgroundImage = {
crop = (151.153,0.182,36.408,91.019);
imagePath = "img/roman/roman-numbers.png";
locked = 1;
pos = (-2491,-603);
scale = (16.48,16.48);
};
layerId = m01;
shapes = (
{
attr = {
lineCapEnd = 1;
lineCapStart = 1;
strokeWidth = 50;
};
closed = 0;
nodes = (
(95,647,l),
(140,770,o),
(474,771,o),
(465,601,cs),
(458,472,o),
(274,460,o),
(274,425,cs),
(274,405,o),
(522,419,o),
(507,212,cs),
(491,-2,o),
(144,40,o),
(144,192,cs)
);
}
);
width = 600;
}
);
unicode = 51;
}
{
glyphname = four;
layers = (
{
backgroundImage = {
crop = (190.129,87.985,40.453,101.133);
imagePath = "img/roman/roman-numbers.png";
locked = 1;
pos = (-2835,-1690);
scale = (14.832,14.832);
};
layerId = m01;
shapes = (
{
attr = {
lineCapEnd = 1;
lineCapStart = 1;
strokeWidth = 50;
};
closed = 0;
nodes = (
(392,5,l),
(389,250,o),
(395,489,o),
(397,726,cs),
(397,760,o),
(383,755,o),
(365,727,cs),
(327,668,o),
(249,532,o),
(88,323,cs),
(68,297,o),
(77,302,o),
(108,304,cs),
(184,310,o),
(267,314,o),
(357,317,cs),
(418,319,o),
(489,326,o),
(529,336,c)
);
}
);
width = 594;
}
);
unicode = 52;
}
{
glyphname = five;
layers = (
{
backgroundImage = {
crop = (239.931,3.716,34.84,87.1);
imagePath = "img/roman/roman-numbers.png";
locked = 1;
pos = (-4132,-664);
scale = (17.2216,17.2216);
};
layerId = m01;
shapes = (
{
attr = {
lineCapEnd = 1;
lineCapStart = 1;
strokeWidth = 50;
};
closed = 0;
nodes = (
(478,758,l),
(391,695,o),
(221,737,o),
(156,748,cs),
(147,750,o),
(141,742,o),
(137,728,cs),
(125,688,o),
(126,575,o),
(131,506,cs),
(134,464,o),
(124,456,o),
(130,456,cs),
(141,456,o),
(214,476,o),
(266,468,cs),
(346,456,o),
(442,403,o),
(450,310,cs),
(462,171,o),
(425,93,o),
(319,63,cs),
(286,54,o),
(187,54,o),
(162,61,cs),
(136,68,o),
(50,112,o),
(111,205,cs)
);
}
);
width = 600;
}
);
unicode = 53;
}
{
glyphname = six;
layers = (
{
backgroundImage = {
crop = (278.519,80.4,36.408,91.019);
imagePath = "img/roman/roman-numbers.png";
locked = 1;
pos = (-4590,-1925);
scale = (16.48,16.48);
};
layerId = m01;
shapes = (
{
attr = {
lineCapEnd = 1;
lineCapStart = 1;
strokeWidth = 50;
};
closed = 0;
nodes = (
(383,850,l),
(225,724,o),
(84,525,o),
(85,320,cs),
(86,116,o),
(197,61,o),
(316,61,c)
);
},
{
attr = {
strokeWidth = 50;
};
closed = 1;
nodes = (
(164,56,o),
(292,62,o),
(316,61,cs),
(427,56,o),
(532,157,o),
(536,256,cs),
(539,330,o),
(484,387,o),
(413,396,cs),
(293,412,o),
(156,290,o),
(160,168,cs)
);
},
{
attr = {
lineCapEnd = 1;
strokeWidth = 50;
};
closed = 0;
nodes = (
(178,365,l)
);
}
);
width = 600;
}
);
unicode = 54;
}
{
glyphname = seven;
layers = (
{
backgroundImage = {
imagePath = "img/roman/roman-numbers.png";
locked = 1;
pos = (-5365,-548);
scale = (16.48,16.48);
};
layerId = m01;
shapes = (
{
attr = {
lineCapEnd = 1;
lineCapStart = 1;
strokeWidth = 50;
};
closed = 0;
nodes = (
(40,852,l),
(189,822,o),
(368,878,o),
(451,852,cs),
(570,815,o),
(308,712,o),
(282,14,c)
);
},
{
attr = {
lineCapEnd = 1;
lineCapStart = 1;
strokeWidth = 50;
};
closed = 0;
nodes = (
(133,512,l),
(273,535,o),
(414,515,o),
(554,517,c)
);
}
);
width = 600;
}
);
unicode = 55;
}
{
glyphname = eight;
layers = (
{
backgroundImage = {
crop = (368.629,81.675,36.408,91.019);
imagePath = "img/roman/roman-numbers.png";
locked = 1;
pos = (-6075,-1946);
scale = (16.48,16.48);
};
layerId = m01;
shapes = (
{
attr = {
strokeWidth = 50;
};
closed = 1;
nodes = (
(152,781,o),
(130,683,o),
(127,647,cs),
(112,450,o),
(503,450,o),
(499,200,cs),
(496,31,o),
(371,27,o),
(325,28,cs),
(240,29,o),
(112,65,o),
(112,203,cs),
(112,430,o),
(456,484,o),
(456,664,cs),
(456,721,o),
(425,776,o),
(318,778,cs)
);
}
);
width = 600;
}
);
unicode = 56;
}
{
glyphname = nine;
layers = (
{
backgroundImage = {
crop = (411.454,0,40.725,101.201);
imagePath = "img/roman/roman-numbers.png";
locked = 1;
pos = (-6062,-588);
scale = (14.7331,14.7331);
};
guides = (
{
pos = (493,452);
}
);
layerId = m01;
shapes = (
{
attr = {
lineCapEnd = 1;
lineCapStart = 1;
strokeWidth = 50;
};
closed = 0;
nodes = (
(210,27,l),
(253,51,o),
(270,66,o),
(286,77,cs),
(377,139,o),
(502,304,o),
(497,481,cs),
(492,642,o),
(416,733,o),
(331,739,cs),
(287,742,o),
(195,725,o),
(147,668,cs),
(109,624,o),
(84,546,o),
(98,478,cs),
(120,372,o),
(214,350,o),
(301,349,cs),
(381,348,o),
(502,360,o),
(497,481,c)
);
}
);
width = 600;
}
);
unicode = 57;
}
{
glyphname = semicolon;
layers = (
{
backgroundImage = {
crop = (1290.17,137.925,36.408,91.019);
imagePath = "img/roman/roman-symbols.png";
locked = 1;
pos = (-21262,-2873);
scale = (16.48,16.48);
};
layerId = m01;
shapes = (
{
attr = {
lineCapEnd = 1;
strokeWidth = 50;
};
closed = 0;
nodes = (
(287,447,l)
);
},
{
attr = {
strokeWidth = 50;
};
closed = 1;
nodes = (
(318,472,o),
(269,471,o),
(269,440,cs),
(269,404,o),
(281,403,o),
(291,406,cs),
(300,409,o),
(320,426,o),
(318,440,c)
);
},
{
attr = {
lineCapEnd = 1;
lineCapStart = 1;
strokeWidth = 50;
};
closed = 0;
nodes = (
(310,98,l),
(331,38,o),
(252,55,o),
(265,108,cs),
(266,113,o),
(282,129,o),
(299,129,cs),
(326,129,o),
(440,27,o),
(232,-216,c)
);
}
);
width = 600;
}
);
unicode = 59;
}
{
glyphname = equal;
layers = (
{
backgroundImage = {
crop = (329.672,282.888,36.408,91.019);
imagePath = "img/roman/roman-numbers.png";
locked = 1;
pos = (-5433,-5262);
scale = (16.48,16.48);
};
layerId = m01;
shapes = (
{
attr = {
lineCapEnd = 1;
lineCapStart = 1;
strokeWidth = 50;
};
closed = 0;
nodes = (
(67,471,l),
(172,485,o),
(234,489,o),
(305,491,cs),
(375,493,o),
(469,491,o),
(518,489,cs)
);
},
{
attr = {
lineCapEnd = 1;
lineCapStart = 1;
strokeWidth = 50;
};
closed = 0;
nodes = (
(62,250,l),
(145,256,o),
(274,259,o),
(316,260,cs),
(420,262,o),
(478,265,o),
(549,261,cs)
);
}
);
width = 600;
}
);
unicode = 61;
}
{
glyphname = question;
layers = (
{
backgroundImage = {
crop = (1165.896,323.555,33.622,84.055);
imagePath = "img/roman/roman-symbols.png";
locked = 1;
pos = (-20806,-6374);
scale = (17.8455,17.8455);
};
layerId = m01;
shapes = (
{
attr = {
lineCapEnd = 1;
lineCapStart = 1;
strokeWidth = 50;
};
closed = 0;
nodes = (
(128,626,l),
(113,755,o),
(218,846,o),
(329,846,cs),
(444,846,o),
(499,751,o),
(499,663,cs),
(499,479,o),
(255,400,o),
(255,245,cs),
(255,209,o),
(268,182,o),
(282,167,cs)
);
},
{
attr = {
lineCapEnd = 1;
lineCapStart = 1;
strokeWidth = 50;
};
closed = 0;
nodes = (
(264,-118,l),
(264,-45,o),
(215,-124,o),
(253,-142,cs),
(286,-157,o),
(312,-98,o),
(276,-66,cs)
);
}
);
width = 600;
}
);
unicode = 63;
}
{
glyphname = A;
layers = (
{
backgroundImage = {
crop = (129.49,741.141,36.408,91.019);
imagePath = "img/roman/roman-upper-case.png";
locked = 1;
pos = (-2134,-12814);
scale = (16.48,16.48);
};
layerId = m01;
shapes = (
{
attr = {
lineCapEnd = 1;
lineCapStart = 1;
strokeWidth = 50;
};
closed = 0;
nodes = (
(95,52,l),
(180,279,l)
);
},
{
attr = {
lineCapEnd = 1;
lineCapStart = 1;
strokeWidth = 50;
};
closed = 0;
nodes = (
(450,273,l),
(512,51,l)
);
},
{
attr = {
strokeWidth = 50;
};
closed = 1;
nodes = (
(333,688,l),
(175,269,l),
(452,266,l)
);
}
);
width = 600;
}
);
unicode = 65;
}
{
glyphname = B;
layers = (
{
backgroundImage = {
crop = (49.518,1550.598,40.026,85.769);
imagePath = "img/roman/roman-upper-case.png";
locked = 1;
pos = (-866,-27718);
scale = (17.4887,17.4887);
};
layerId = m01;
shapes = (
{
attr = {
lineCapEnd = 1;
lineCapStart = 1;
strokeWidth = 50;
};
closed = 0;
nodes = (
(71,-21,l),
(138,333,o),
(118,579,o),
(118,766,cs),
(118,795,o),
(120,801,o),
(161,801,cs),
(341,801,o),
(594,794,o),
(594,678,cs),
(594,600,o),
(480,477,o),
(225,458,cs),
(203,456,o),
(203,455,o),
(225,454,cs),
(356,447,o),
(626,411,o),
(626,224,cs),
(626,40,o),
(341,9,o),
(115,-9,c)
);
}
);
width = 700;
}
);
unicode = 66;
}
{
glyphname = C;
layers = (
{
backgroundImage = {
crop = (450.85,679.672,36.408,91.019);
imagePath = "img/roman/roman-upper-case.png";
locked = 1;
pos = (-7430,-11801);
scale = (16.48,16.48);
};
layerId = m01;
shapes = (
{
attr = {
lineCapEnd = 1;
lineCapStart = 1;
strokeWidth = 50;
};
closed = 0;
nodes = (
(528,162,l),
(430,100,o),
(281,13,o),
(150,81,cs),
(-23,170,o),
(18,411,o),
(98,545,cs),
(212,735,o),
(480,679,o),
(550,546,cs)
);
}
);
width = 600;
}
);
unicode = 67;
}
{
glyphname = D;
layers = (
{
backgroundImage = {
crop = (408.313,820.085,36.408,91.019);
imagePath = "img/roman/roman-upper-case.png";
locked = 1;
pos = (-6729,-14115);
scale = (16.48,16.48);
};
layerId = m01;
shapes = (
{
attr = {
strokeWidth = 50;
};
closed = 1;
nodes = (
(103,58,l),
(103,37,o),
(143,27,o),
(209,34,cs),
(331,47,o),
(539,133,o),
(549,343,cs),
(564,655,o),
(98,701,o),
(99,621,cs)
);
}
);
width = 600;
}
);
unicode = 68;
}
{
glyphname = E;
layers = (
{
backgroundImage = {
crop = (48.343,1273.343,41.436,103.591);
imagePath = "img/roman/roman-upper-case.png";
locked = 1;
pos = (-700,-19038);
scale = (14.48,14.48);
};
layerId = m01;
shapes = (
{
attr = {
lineCapEnd = 1;
lineCapStart = 1;
strokeWidth = 50;
};
closed = 0;
nodes = (
(521,714,l),
(484,714,o),
(101,741,o),
(77,703,cs),
(35,636,o),
(50,475,o),
(39,351,c)
);
},
{
attr = {
lineCapEnd = 1;
lineCapStart = 1;
strokeWidth = 50;
};
closed = 0;
nodes = (
(528,67,ls),
(376,65,o),
(178,36,o),
(77,60,cs),
(33,70,o),
(35,262,o),
(39,351,c),
(126,351,o),
(275,353,o),
(442,356,c)
);
}
);
width = 600;
}
);
unicode = 69;
}
{
glyphname = F;
layers = (
{
backgroundImage = {
crop = (884.527,747.633,36.408,91.019);
imagePath = "img/roman/roman-upper-case.png";
locked = 1;
pos = (-14577,-12921);
scale = (16.48,16.48);
};
layerId = m01;
shapes = (
{
attr = {
lineCapEnd = 1;
lineCapStart = 1;
strokeWidth = 50;
};
closed = 0;
nodes = (
(100,2,l),
(125,177,o),
(125,224,o),
(138,415,c)
);
},
{
attr = {
lineCapEnd = 1;
lineCapStart = 1;
strokeWidth = 50;
};
closed = 0;
nodes = (
(512,734,ls),
(305,734,o),
(147,774,o),
(142,695,cs),
(136,598,o),
(138,606,o),
(138,415,c),
(298,419,o),
(358,425,o),
(456,425,c)
);
}
);
width = 600;
}
);
unicode = 70;
}
{
glyphname = H;
layers = (
{
backgroundImage = {
crop = (996.104,471.896,38.324,95.81);
imagePath = "img/roman/roman-upper-case.png";
locked = 1;
pos = (-15593,-7837);
scale = (15.656,15.656);
};
layerId = m01;
shapes = (
{
attr = {
lineCapEnd = 1;
lineCapStart = 1;
strokeWidth = 50;
};
closed = 0;
nodes = (
(87,805,l),
(75,651,o),
(74,563,o),
(69,448,c)
);
},
{
attr = {
lineCapEnd = 1;
lineCapStart = 1;
strokeWidth = 50;
};
closed = 0;
nodes = (
(575,768,l),
(564,675,o),
(550,579,o),
(539,487,cs),
(538,479,o),
(537,470,o),
(536,462,cs),
(529,388,o),
(523,318,o),
(523,253,cs),
(523,131,o),
(541,26,o),
(558,3,cs)
);
},
{
attr = {
lineCapEnd = 1;
lineCapStart = 1;
strokeWidth = 50;
};
closed = 0;
nodes = (
(50,22,ls),
(37,121,o),
(57,269,o),
(59,297,cs),
(63,355,o),
(64,381,o),
(69,448,c),
(69,453,o),
(77,448,o),
(123,450,cs),
(184,452,o),
(533,413,o),
(539,487,c)
);
}
);
width = 600;
}
);
unicode = 72;
}
{
glyphname = I;
layers = (
{
backgroundImage = {
crop = (493.774,1663.932,40.341,100.853);
imagePath = "img/roman/roman-upper-case.png";
locked = 1;
pos = (-7351,-25228);
scale = (14.8732,14.8732);
};
layerId = m01;
shapes = (
{
attr = {
lineCapEnd = 1;
lineCapStart = 1;
strokeWidth = 50;
};
closed = 0;
nodes = (
(77,721,l),
(100,732,o),
(214,740,o),
(293,737,cs),
(302,737,o),
(293,737,o),
(315,736,c)
);
},
{
attr = {
lineCapEnd = 1;
lineCapStart = 1;
strokeWidth = 50;
};
closed = 0;
nodes = (
(315,736,l),
(319,736,o),
(362,738,o),
(372,738,cs),
(435,738,o),
(515,744,o),
(558,763,cs)
);
},
{
attr = {
lineCapEnd = 1;
lineCapStart = 1;
strokeWidth = 50;
};
closed = 0;
nodes = (
(280,44,l),
(282,228,o),
(287,584,o),
(287,596,cs),
(288,640,o),
(307,738,o),
(372,738,cs)
);
},
{
attr = {
lineCapEnd = 1;
lineCapStart = 1;
strokeWidth = 50;
};
closed = 0;
nodes = (
(28,26,l),
(193,41,o),
(400,56,o),
(531,44,c)
);
}
);
width = 600;
}
);
unicode = 73;
}
{
glyphname = J;
layers = (
{
backgroundImage = {
crop = (488.774,1579.794,36.408,91.019);
imagePath = "img/roman/roman-upper-case.png";
locked = 1;
pos = (-8055,-26635);
scale = (16.48,16.48);
};
layerId = m01;
shapes = (
{
attr = {
lineCapEnd = 1;
lineCapStart = 1;
strokeWidth = 50;
};
closed = 0;
nodes = (
(32,-243,ls),
(68,-279,o),
(115,-301,o),
(199,-305,cs),
(490,-320,o),
(479,73,o),
(495,721,c),
(324,721,l)
);
}
);
width = 600;
}
);
unicode = 74;
}
{
glyphname = K;
layers = (
{
backgroundImage = {
imagePath = "img/roman/roman-upper-case.png";
locked = 1;
pos = (-8123,-24900);
scale = (16.48,16.48);
};
layerId = m01;
shapes = (
{
attr = {
lineCapEnd = 1;
lineCapStart = 1;
strokeWidth = 50;
};
closed = 0;
nodes = (
(84,904,l),
(72,754,o),
(62,605,o),
(55,475,c)
);
},
{
attr = {
lineCapEnd = 1;
lineCapStart = 1;
strokeWidth = 50;
};
closed = 0;
nodes = (
(72,21,l),
(44,35,o),
(42,215,o),
(54,460,c)
);
},
{
attr = {
lineCapEnd = 1;
lineCapStart = 1;
strokeWidth = 50;
};
closed = 0;
nodes = (
(550,900,l),
(511,866,o),
(275,594,o),
(55,475,c),
(445,674,o),
(468,-330,o),
(866,-294,cs)
);
}
);
width = 600;
}
);
unicode = 75;
}
{
glyphname = L;
layers = (
{
backgroundImage = {
imagePath = "img/roman/roman-upper-case.png";
locked = 1;
pos = (-8103,-23481);
scale = (16.43,16.43);
};
layerId = m01;
shapes = (
{
attr = {
lineCapEnd = 1;
lineCapStart = 1;
strokeWidth = 50;
};
closed = 0;
nodes = (
(34,800,l),
(69,711,o),
(20,121,o),
(66,39,c),
(92,53,o),
(301,35,o),
(324,29,cs),
(353,22,o),
(513,1,o),
(552,22,cs)
);
}
);
width = 600;
}
);
unicode = 76;
}
{
glyphname = M;
layers = (
{
backgroundImage = {
imagePath = "img/roman/roman-upper-case.png";
locked = 1;
pos = (-8252,-22179);
scale = (16.48,16.48);
};
layerId = m01;
shapes = (
{
attr = {
lineCapEnd = 1;
lineCapStart = 1;
strokeWidth = 50;
};
closed = 0;
nodes = (
(-108,-36,l),
(-74,268,o),
(-52,630,o),
(-50,741,cs)
);
},
{
attr = {
lineCapEnd = 1;
lineCapStart = 1;
strokeWidth = 50;
};
closed = 0;
nodes = (
(668,791,l),
(591,610,o),
(395,247,o),
(295,120,cs)
);
},
{
attr = {
lineCapEnd = 1;
lineCapStart = 1;
strokeWidth = 50;
};
closed = 0;
nodes = (
(-46,735,l),
(92,560,o),
(228,224,o),
(291,119,cs)
);
},
{
attr = {
lineCapEnd = 1;
lineCapStart = 1;
strokeWidth = 50;
};
closed = 0;
nodes = (
(669,798,l),
(648,423,o),
(657,-108,o),
(733,-182,cs)
);
}
);
width = 600;
}
);
unicode = 77;
}
{
glyphname = O;
layers = (
{
backgroundImage = {
crop = (493.027,1131.306,44.51,111.276);
imagePath = "img/roman/roman-upper-case.png";
locked = 1;
pos = (-6639,-15869);
scale = (13.48,13.48);
};
layerId = m01;
shapes = (
{
attr = {
strokeWidth = 50;
};
closed = 1;
nodes = (
(-3,722,o),
(-94,32,o),
(279,24,cs),
(635,16,o),
(723,613,o),
(350,669,cs)
);
}
);
width = 600;
}
);
unicode = 79;
}
{
glyphname = Q;
kernLeft = O;
kernRight = O;
layers = (
{
backgroundImage = {
crop = (278.314,618.423,45.319,79.975);
imagePath = "img/roman/roman-upper-case.png";
locked = 1;
pos = (-5220,-12199);
scale = (18.7558,18.7558);
};
layerId = m01;
shapes = (
{
attr = {
strokeWidth = 50;
};
closed = 1;
nodes = (
(545,16,o),
(691,159,o),
(691,415,cs),
(691,649,o),
(565,832,o),
(407,832,cs),
(229,832,o),
(63,589,o),
(63,351,cs),
(63,139,o),
(182,16,o),
(356,16,cs)
);
},
{
attr = {
lineCapEnd = 1;
lineCapStart = 1;
strokeWidth = 50;
};
closed = 0;
nodes = (
(45,-114,l),
(77,-82,o),
(114,-63,o),
(154,-64,cs),
(246,-66,o),
(302,-170,o),
(503,-171,cs),
(608,-172,o),
(700,-151,o),
(802,-84,cs)
);
}
);
width = 850;
}
);
unicode = 81;
}
{
glyphname = R;
layers = (
{
backgroundImage = {
imagePath = "img/roman/roman-upper-case.png";
locked = 1;
pos = (-15109,-25356);
scale = (15,15);
};
layerId = m01;
shapes = (
{
attr = {
lineCapEnd = 1;
lineCapStart = 1;
strokeWidth = 50;
};
closed = 0;
nodes = (
(60,718,l),
(65,260,o),
(38,104,o),
(64,0,cs)
);
},
{
attr = {
strokeWidth = 50;
};
closed = 0;
nodes = (
(62,668,l),
(100,696,o),
(180,754,o),
(283,754,cs),
(384,754,o),
(498,694,o),
(498,593,cs),
(498,518,o),
(506,388,o),
(88,385,cs)
);
},
{
attr = {
lineCapEnd = 1;
strokeWidth = 50;
};
closed = 0;
nodes = (
(76,388,l),
(220,379,o),
(267,370,o),
(306,353,cs),
(349,334,o),
(369,313,o),
(413,219,cs),
(445,150,o),
(492,48,o),
(528,-1,cs),
(559,-43,o),
(588,-105,o),
(636,-121,cs)
);
}
);
width = 600;
}
);
unicode = 82;
}
{
glyphname = S;
layers = (
{
backgroundImage = {
imagePath = "img/roman/roman-upper-case.png";
locked = 1;
pos = (-759,-3102);
scale = (14.5,14.5);
};
layerId = m01;
shapes = (
{
attr = {
lineCapEnd = 1;
lineCapStart = 1;
strokeWidth = 50;
};
closed = 0;
nodes = (
(553,603,l),
(578,620,o),
(588,642,o),
(588,664,cs),
(588,685,o),
(579,781,o),
(410,781,cs),
(233,781,o),
(46,679,o),
(46,551,cs),
(46,429,o),
(216,415,o),
(317,403,cs),
(379,396,o),
(587,366,o),
(583,228,cs),
(581,130,o),
(473,20,o),
(274,20,cs),
(125,20,o),
(52,79,o),
(26,130,cs),
(16,150,o),
(10,175,o),
(35,213,cs)
);
}
);
width = 600;
}
);
unicode = 83;
}
{
glyphname = U;
layers = (
{
backgroundImage = {
crop = (1089.927,748.968,36.408,91.019);
imagePath = "img/roman/roman-upper-case.png";
locked = 1;
pos = (-21061,-15200);
scale = (19.3241,19.3241);
};
layerId = m01;
shapes = (
{
attr = {
lineCapEnd = 1;
lineCapStart = 1;
strokeWidth = 50;
};
closed = 0;
nodes = (
(92,786,l),
(60,336,o),
(36,0,o),
(367,0,cs),
(592,0,o),
(687,277,o),
(645,782,cs)
);
}
);
width = 730;
}
);
unicode = 85;
}
{
glyphname = V;
layers = (
{
backgroundImage = {
crop = (153.641,612.621,36.408,91.019);
imagePath = "img/roman/roman-upper-case.png";
locked = 1;
pos = (-2532,-10696);
scale = (16.48,16.48);
};
layerId = m01;
shapes = (
{
attr = {
lineCapEnd = 1;
lineCapStart = 1;
strokeWidth = 50;
};
closed = 0;
nodes = (
(75,706,l),
(172,496,o),
(236,281,o),
(301,75,cs),
(304,66,o),
(311,66,o),
(314,74,cs),
(387,275,o),
(518,581,o),
(571,727,c)
);
}
);
width = 600;
}
);
unicode = 86;
}
{
glyphname = W;
layers = (
{
backgroundImage = {
imagePath = "img/roman/roman-upper-case.png";
locked = 1;
pos = (-16599,-21137);
scale = (16.48,16.48);
};
layerId = m01;
shapes = (
{
attr = {
lineCapEnd = 1;
lineCapStart = 1;
strokeWidth = 50;
};
closed = 0;
nodes = (
(64,843,l),
(326,640,o),
(275,187,o),
(308,91,c),
(311,82,o),
(322,71,o),
(326,77,c),
(373,148,o),
(441,669,o),
(547,669,c),
(661,669,o),
(653,82,o),
(736,46,c),
(798,38,o),
(745,620,o),
(942,874,c)
);
},
{
attr = {
lineCapEnd = 1;
strokeWidth = 50;
};
closed = 0;
nodes = (
(318,46,l)
);
}
);
width = 979;
}
);
unicode = 87;
}
{
glyphname = X;
layers = (
{
backgroundImage = {
crop = (624.697,618.083,36.408,91.019);
imagePath = "img/roman/roman-upper-case.png";
locked = 1;
pos = (-10295,-10786);
scale = (16.48,16.48);
};
layerId = m01;
shapes = (
{
attr = {
lineCapEnd = 1;
lineCapStart = 1;
strokeWidth = 50;
};
closed = 0;
nodes = (
(43,28,l),
(228,249,o),
(359,415,o),
(539,677,cs)
);
},
{
attr = {
lineCapEnd = 1;
lineCapStart = 1;
strokeWidth = 50;
};
closed = 0;
nodes = (
(67,638,l),
(188,541,o),
(291,361,o),
(530,88,cs)
);
}
);
width = 600;
}
);
unicode = 88;
}
{
glyphname = Y;
layers = (
{
backgroundImage = {
imagePath = "img/roman/roman-upper-case.png";
locked = 1;
pos = (-16496,-18354);
scale = (16.3,16.3);
};
layerId = m01;
shapes = (
{
attr = {
lineCapEnd = 1;
lineCapStart = 1;
strokeWidth = 50;
};
closed = 0;
nodes = (
(644,758,l),
(425,563,o),
(351,337,o),
(290,341,cs),
(225,345,o),
(196,417,o),
(145,506,cs),
(94,595,o),
(75,626,o),
(1,719,cs)
);
},
{
attr = {
lineCapEnd = 1;
lineCapStart = 1;
strokeWidth = 50;
};
closed = 0;
nodes = (
(305,-79,l),
(274,0,o),
(274,92,o),
(280,167,cs),
(282,188,o),
(292,335,o),
(292,335,cs)
);
},
{
closed = 0;
nodes = (
(674,-62,l)
);
}
);
width = 600;
}
);
unicode = 89;
}
{
glyphname = bracketleft;
layers = (
{
backgroundImage = {
crop = (1309.223,319.357,36.408,91.019);
imagePath = "img/roman/roman-symbols.png";
locked = 1;
pos = (-21636,-5863);
scale = (16.48,16.48);
};
layerId = m01;
shapes = (
{
attr = {
lineCapEnd = 1;
lineCapStart = 1;
strokeWidth = 50;
};
closed = 0;
nodes = (
(371,776,l),
(204,768,ls),
(194,767,o),
(190,762,o),
(190,752,cs),
(220,451,o),
(268,8,o),
(236,-157,cs),
(234,-167,o),
(239,-173,o),
(249,-173,cs),
(472,-169,l)
);
}
);
width = 600;
}
);
unicode = 91;
}
{
glyphname = backslash;
layers = (
{
layerId = m01;
shapes = (
{
attr = {
lineCapEnd = "1";
lineCapStart = "1";
strokeWidth = 50;
};
closed = 0;
nodes = (
(14,916,l),
(202,552,o),
(364,163,o),
(585,-210,c)
);
}
);
width = 600;
}
);
unicode = 92;
}
{
glyphname = bracketright;
layers = (
{
backgroundImage = {
crop = (1415.534,318.993,36.408,91.019);
imagePath = "img/roman/roman-symbols.png";
locked = 1;
pos = (-23238,-5857);
scale = (16.48,16.48);
};
layerId = m01;
shapes = (
{
attr = {
lineCapEnd = 1;
lineCapStart = 1;
strokeWidth = 50;
};
closed = 0;
nodes = (
(168,806,l),
(225,796,o),
(265,794,o),
(331,800,cs),
(338,801,o),
(343,801,o),
(345,795,cs),
(375,714,o),
(382,-98,o),
(374,-198,cs),
(373,-205,o),
(369,-209,o),
(362,-209,cs),
(320,-212,o),
(265,-195,o),
(198,-213,c)
);
}
);
width = 600;
}
);
unicode = 93;
}
{
glyphname = asciicircum;
layers = (
{
layerId = m01;
shapes = (
{
attr = {
lineCapEnd = 1;
lineCapStart = 1;
strokeWidth = 50;
};
closed = 0;
nodes = (
(136,389,l),
(286,628,ls),
(290,635,o),
(296,635,o),
(300,629,cs),
(464,396,l)
);
}
);
width = 600;
}
);
unicode = 94;
}
{
glyphname = underscore;
layers = (
{
layerId = m01;
shapes = (
{
attr = {
lineCapEnd = 1;
lineCapStart = 1;
strokeWidth = 50;
};
closed = 0;
nodes = (
(97,-83,l),
(238,-83,o),
(240,-83,o),
(500,-83,cs)
);
}
);
width = 600;
}
);
unicode = 95;
}
{
glyphname = a;
layers = (
{
backgroundImage = {
crop = (585.051,1534.019,27.284,74.007);
imagePath = "img/roman/roman-lower-case.png";
locked = 1;
pos = (-11858,-31692);
scale = (20.2683,20.2683);
};
layerId = m01;
shapes = (
{
attr = {
lineCapEnd = 1;
lineCapStart = 1;
strokeWidth = 50;
};
closed = 0;
nodes = (
(75,380,l),
(180,489,o),
(388,542,o),
(434,313,cs),
(479,83,o),
(434,71,o),
(478,7,c)
);
},
{
attr = {
strokeWidth = 50;
};
closed = 1;
nodes = (
(27,130,o),
(177,288,o),
(332,288,cs),
(459,288,o),
(453,209,o),
(446,149,cs),
(435,65,o),
(380,38,o),
(365,30,cs),
(270,-15,o),
(157,-12,o),
(106,44,cs)
);
}
);
width = 553;
}
);
unicode = 97;
}
{
glyphname = b;
layers = (
{
backgroundImage = {
imagePath = "img/roman/roman-lower-case.png";
scale = (16.48,16.48);
};
layerId = m01;
width = 600;
}
);
unicode = 98;
}
{
glyphname = b;
layers = (
{
backgroundImage = {
crop = (486.728,204.281,36.697,91.743);
imagePath = "img/roman/roman-lower-case.png";
locked = 1;
pos = (-7958,-3940);
scale = (16.35,16.35);
};
layerId = m01;
shapes = (
{
attr = {
lineCapEnd = 1;
lineCapStart = 1;
strokeWidth = 50;
};
closed = 0;
nodes = (
(157,693,l),
(166,267,l)
);
},
{
attr = {
strokeWidth = 50;
};
closed = 1;
nodes = (
(166,67,ls),
(166,53,o),
(219,24,o),
(287,21,cs),
(445,13,o),
(486,199,o),
(457,301,cs),
(442,354,o),
(399,418,o),
(328,414,cs),
(256,410,o),
(166,337,o),
(166,267,cs)
);
}
);
width = 600;
}
);
unicode = 98;
}
{
glyphname = c;
layers = (
{
backgroundImage = {
crop = (380.158,448.604,36.408,91.019);
imagePath = "img/roman/roman-lower-case.png";
locked = 1;
pos = (-6893,-8656);
scale = (17.8455,17.8455);
};
layerId = m01;
shapes = (
{
attr = {
lineCapEnd = 1;
lineCapStart = 1;
strokeWidth = 50;
};
closed = 0;
nodes = (
(448,372,l),
(329,530,o),
(65,443,o),
(65,208,cs),
(65,-27,o),
(314,-41,o),
(443,17,cs)
);
}
);
width = 503;
}
);
metricLeft = "=o";
unicode = 99;
}
{
glyphname = d;
layers = (
{
backgroundImage = {
crop = (746.924,715.475,33.635,84.088);
imagePath = "img/roman/roman-lower-case.png";
locked = 1;
pos = (-13351,-13363);
scale = (17.8385,17.8385);
};
hints = (
{
horizontal = 1;
origin = (0,6);
target = (0,3);
type = Stem;
}
);
layerId = m01;
shapes = (
{
attr = {
lineCapEnd = 1;
lineCapStart = 1;
strokeWidth = 50;
};
closed = 0;
nodes = (
(448,874,l),
(450,691,o),
(448,543,o),
(431,393,cs),
(411,207,o),
(436,55,o),
(516,-19,c)
);
},
{
attr = {
lineCapEnd = 1;
lineCapStart = 1;
strokeWidth = 50;
};
closed = 0;
nodes = (
(425,384,l),
(190,531,o),
(106,313,o),
(83,238,cs),
(15,19,o),
(144,-105,o),
(425,181,cs)
);
}
);
width = 573;
}
);
metricLeft = "=o";
unicode = 100;
}
{
glyphname = e;
layers = (
{
backgroundImage = {
crop = (185.437,2.791,36.408,91.019);
imagePath = "img/roman/roman-lower-case.png";
locked = 1;
pos = (-3524,-765);
scale = (18.5484,18.5484);
};
layerId = m01;
shapes = (
{
attr = {
lineCapEnd = 1;
lineCapStart = 1;
strokeWidth = 50;
};
closed = 0;
nodes = (
(83,285,l),
(403,274,o),
(435,318,o),
(435,364,cs),
(435,437,o),
(354,451,o),
(300,451,cs),
(194,451,o),
(67,374,o),
(65,216,cs),
(64,136,o),
(95,-5,o),
(279,-5,cs),
(355,-5,o),
(400,19,o),
(424,43,cs)
);
}
);
width = 500;
}
);
metricLeft = "=o";
metricRight = "=o";
unicode = 101;
}
{
glyphname = f;
layers = (
{
backgroundImage = {
crop = (133.617,318.386,36.408,91.019);
imagePath = "img/roman/roman-lower-case.png";
locked = 1;
pos = (-2307,-5847);
scale = (16.48,16.48);
};
layerId = m01;
shapes = (
{
attr = {
lineCapEnd = 1;
lineCapStart = 1;
strokeWidth = 50;
};
closed = 0;
nodes = (
(422,628,l),
(420,675,o),
(392,714,o),
(346,733,cs),
(286,757,o),
(227,735,o),
(195,692,cs),
(173,661,o),
(161,615,o),
(164,515,cs),
(171,293,o),
(192,42,o),
(195,-150,cs),
(198,-314,o),
(149,-358,o),
(121,-376,cs)
);
},
{
attr = {
lineCapEnd = 1;
lineCapStart = 1;
strokeWidth = 50;
};
closed = 0;
nodes = (
(65,334,l),
(286,337,l)
);
}
);
width = 447;
}
);
unicode = 102;
}
{
glyphname = g;
kernLeft = o;
kernRight = o;
layers = (
{
backgroundImage = {
crop = (1261.815,1443.559,32.31,80.775);
imagePath = "img/roman/roman-lower-case.png";
locked = 1;
pos = (-23504,-27407);
scale = (18.5701,18.5701);
};
layerId = m01;
shapes = (
{
attr = {
lineCapEnd = 1;
lineCapStart = 1;
strokeWidth = 50;
};
closed = 0;
nodes = (
(431,443,l),
(353,471,o),
(252,427,o),
(202,399,cs),
(122,355,o),
(55,284,o),
(55,187,cs),
(55,57,o),
(176,24,o),
(260,47,cs),
(349,72,o),
(410,162,o),
(410,243,cs),
(410,353,o),
(296,414,o),
(202,399,c)
);
},
{
attr = {
lineCapEnd = 1;
lineCapStart = 1;
strokeWidth = 50;
};
closed = 0;
nodes = (
(260,47,l),
(207,34,o),
(173,-31,o),
(277,-31,cs),
(351,-31,o),
(487,-100,o),
(487,-235,cs),
(487,-360,o),
(373,-481,o),
(167,-481,cs),
(-16,-481,o),
(-30,-366,o),
(-30,-326,cs),
(-30,-199,o),
(107,-68,o),
(277,-31,c)
);
}
);
width = 467;
}
);
metricLeft = "=o-85";
metricRight = "=o-75";
unicode = 103;
}
{
glyphname = h;
layers = (
{
backgroundImage = {
crop = (1147.714,1190.644,32.468,85.744);
imagePath = "img/roman/roman-lower-case.png";
locked = 1;
pos = (-20078,-21429);
scale = (17.4939,17.4939);
};
layerId = m01;
shapes = (
{
attr = {
lineCapEnd = "1";
lineCapStart = "1";
strokeWidth = 50;
};
closed = 0;
nodes = (
(95,762,l),
(127,620,o),
(133,121,o),
(139,19,cs),
(140,-2,o),
(142,3,o),
(141,19,cs),
(126,375,o),
(244,457,o),
(335,457,cs),
(490,457,o),
(478,219,o),
(493,0,cs)
);
}
);
width = 568;
}
);
metricLeft = "=n";
metricRight = "=n";
unicode = 104;
}
{
glyphname = i;
layers = (
{
backgroundImage = {
crop = (589.017,995.388,18.204,91.019);
imagePath = "img/roman/roman-lower-case.png";
locked = 1;
pos = (-13098,-23003);
scale = (22.1477,22.1477);
};
layerId = m01;
shapes = (
{
attr = {
lineCapEnd = 1;
lineCapStart = 1;
strokeWidth = 50;
};
closed = 0;
nodes = (
(129,661,l),
(81,747,o),
(170,691,o),
(159,643,cs)
);
},
{
attr = {
lineCapEnd = 1;
lineCapStart = 1;
strokeWidth = 50;
};
closed = 0;
nodes = (
(133,417,l),
(133,263,o),
(137,148,o),
(170,0,cs)
);
}
);
width = 300;
}
);
unicode = 105;
}
{
glyphname = j;
layers = (
{
backgroundImage = {
crop = (190.582,692.468,38.002,95.006);
imagePath = "img/roman/roman-lower-case.png";
locked = 1;
pos = (-3965,-14288);
scale = (19.1608,19.1608);
};
layerId = m01;
shapes = (
{
attr = {
lineCapEnd = 1;
lineCapStart = 1;
strokeWidth = 50;
};
closed = 0;
nodes = (
(302,390,l),
(302,236,o),
(310,130,o),
(298,-74,cs),
(287,-259,o),
(263,-438,o),
(205,-748,cs),
(189,-834,l)
);
},
{
attr = {
lineCapEnd = 1;
lineCapStart = 1;
strokeWidth = 50;
};
closed = 0;
nodes = (
(276,634,l),
(276,692,o),
(242,709,o),
(252,660,c)
);
}
);
width = 600;
}
);
unicode = 106;
}
{
glyphname = k;
layers = (
{
backgroundImage = {
crop = (616.626,1345.146,36.408,91.019);
imagePath = "img/roman/roman-lower-case.png";
locked = 1;
pos = (-10166,-22768);
scale = (16.48,16.48);
};
layerId = m01;
shapes = (
{
attr = {
lineCapEnd = 1;
lineCapStart = 1;
strokeWidth = 50;
};
closed = 0;
nodes = (
(95,696,l),
(96,576,o),
(100,423,o),
(104,273,c),
(156,273,o),
(97,273,o),
(202,273,c)
);
},
{
attr = {
lineCapEnd = 1;
lineCapStart = 1;
strokeWidth = 50;
};
closed = 0;
nodes = (
(104,68,ls),
(103,132,o),
(103,221,o),
(104,273,c)
);
},
{
attr = {
lineCapEnd = 1;
lineCapStart = 1;
strokeWidth = 50;
};
closed = 0;
nodes = (
(376,454,ls),
(293,359,o),
(257,330,o),
(202,277,c),
(284,142,o),
(363,81,o),
(482,25,c)
);
}
);
width = 547;
}
);
unicode = 107;
}
{
glyphname = l;
layers = (
{
backgroundImage = {
crop = (167.651,100.058,14.801,74.007);
imagePath = "img/roman/roman-lower-case.png";
locked = 1;
pos = (-3476,-2628);
scale = (20.2683,20.2683);
};
layerId = m01;
shapes = (
{
attr = {
lineCapEnd = 1;
lineCapStart = 1;
strokeWidth = 50;
};
closed = 0;
nodes = (
(95,825,l),
(140,506,o),
(71,12,o),
(118,-51,cs)
);
}
);
width = 213;
}
);
unicode = 108;
}
{
glyphname = m;
layers = (
{
backgroundImage = {
imagePath = "img/roman/roman-lower-case.png";
locked = 1;
pos = (-23206,-2424);
scale = (18,18);
};
layerId = m01;
shapes = (
{
attr = {
lineCapStart = 1;
strokeWidth = 50;
};
closed = 0;
nodes = (
(592,21,l),
(592,194,o),
(595,410,o),
(476,409,cs),
(357,408,o),
(313,180,o),
(314,60,c),
(307,285,o),
(305,404,o),
(175,404,cs),
(22,404,o),
(21,247,o),
(21,45,c)
);
},
{
attr = {
lineCapEnd = 1;
lineCapStart = 1;
strokeWidth = 50;
};
closed = 0;
nodes = (
(-27,443,l),
(0,375,o),
(19,215,o),
(21,23,cs)
);
},
{
attr = {
lineCapStart = 1;
strokeWidth = 50;
};
closed = 0;
nodes = (
(314,50,l),
(314,64,o),
(313,73,o),
(313,80,cs)
);
}
);
width = 600;
}
);
unicode = 109;
}
{
glyphname = n;
layers = (
{
backgroundImage = {
crop = (577.245,439.988,36.408,91.019);
imagePath = "img/roman/roman-lower-case.png";
locked = 1;
pos = (-9535,-7851);
scale = (16.48,16.48);
};
layerId = m01;
shapes = (
{
attr = {
lineCapEnd = 1;
lineCapStart = 1;
strokeWidth = 50;
};
closed = 0;
nodes = (
(95,450,l),
(98,380,o),
(95,114,o),
(100,18,cs),
(101,-2,o),
(103,3,o),
(103,18,cs),
(108,363,o),
(254,471,o),
(355,471,cs),
(511,471,o),
(448,206,o),
(472,0,cs)
);
}
);
width = 547;
}
);
unicode = 110;
}
{
glyphname = o;
layers = (
{
backgroundImage = {
crop = (252.913,1229.976,30.34,91.019);
imagePath = "img/roman/roman-lower-case.png";
locked = 1;
pos = (-4725,-23794);
scale = (18.7558,18.7558);
};
layerId = m01;
shapes = (
{
attr = {
strokeWidth = 50;
};
closed = 1;
nodes = (
(340,-11,o),
(456,103,o),
(456,255,cs),
(456,386,o),
(370,459,o),
(302,459,cs),
(207,459,o),
(65,326,o),
(65,171,cs),
(65,43,o),
(157,-11,o),
(232,-11,cs)
);
}
);
width = 521;
}
);
unicode = 111;
}
{
glyphname = p;
layers = (
{
backgroundImage = {
angle = -1;
crop = (692.112,918.932,32.221,91.019);
imagePath = "img/roman/roman-lower-case.png";
locked = 1;
pos = (-13206,-17493);
scale = (18.5484,18.5484);
};
layerId = m01;
shapes = (
{
attr = {
lineCapEnd = 1;
lineCapStart = 1;
strokeWidth = 50;
};
closed = 0;
nodes = (
(60,-447,l),
(83,-345,o),
(102,-231,o),
(105,-59,cs),
(107,96,o),
(101,276,o),
(93,391,cs)
);
},
{
attr = {
lineCapEnd = 1;
lineCapStart = 1;
strokeWidth = 50;
};
closed = 0;
nodes = (
(109,-1,l),
(208,-1,o),
(270,28,o),
(334,87,cs),
(425,173,o),
(459,307,o),
(388,391,cs),
(284,516,o),
(128,447,o),
(99,312,cs)
);
}
);
width = 481;
}
);
metricLeft = "=n-35";
metricRight = "=o";
unicode = 112;
}
{
glyphname = q;
layers = (
{
backgroundImage = {
crop = (505.036,713.896,36.408,91.019);
imagePath = "img/roman/roman-lower-case.png";
locked = 1;
pos = (-8372,-12362);
scale = (16.48,16.48);
};
layerId = m01;
shapes = (
{
attr = {
lineCapEnd = 1;
lineCapStart = 1;
strokeWidth = 50;
};
closed = 0;
nodes = (
(468,-335,ls),
(463,-369,o),
(449,-436,o),
(427,-458,cs),
(418,-467,o),
(404,-472,o),
(397,-454,cs),
(376,-399,o),
(395,-99,o),
(426,146,cs),
(432,193,o),
(448,324,o),
(408,375,cs),
(390,398,o),
(354,413,o),
(314,413,cs),
(253,413,o),
(110,380,o),
(72,207,cs),
(57,136,o),
(51,0,o),
(182,0,cs),
(297,0,o),
(393,102,o),
(426,146,c)
);
}
);
width = 543;
}
);
metricLeft = "=o";
unicode = 113;
}
{
glyphname = r;
layers = (
{
backgroundImage = {
crop = (1189.381,1106.189,36.408,91.019);
imagePath = "img/roman/roman-lower-case.png";
locked = 1;
pos = (-19601,-18830);
scale = (16.48,16.48);
};
layerId = m01;
shapes = (
{
attr = {
lineCapEnd = 1;
lineCapStart = 1;
strokeWidth = 50;
};
closed = 0;
nodes = (
(220,351,l),
(240,213,o),
(241,123,o),
(248,54,cs)
);
},
{
attr = {
lineCapEnd = 2;
lineCapStart = 1;
strokeWidth = 50;
};
closed = 0;
nodes = (
(466,450,l),
(385,454,o),
(346,446,o),
(312,420,cs),
(289,402,o),
(220,306,o),
(236,215,cs)
);
}
);
width = 600;
}
);
unicode = 114;
}
{
glyphname = s;
layers = (
{
backgroundImage = {
imagePath = "img/roman/roman-lower-case.png";
scale = (16.48,16.48);
};
layerId = m01;
shapes = (
{
attr = {
lineCapEnd = "1";
lineCapStart = "1";
strokeWidth = 50;
};
closed = 0;
nodes = (
(881,355,l),
(935,446,o),
(527,450,o),
(573,293,c),
(600,173,o),
(1031,166,o),
(872,-12,c),
(765,-102,o),
(527,21,o),
(566,123,c)
);
},
{
attr = {
lineCapEnd = "1";
strokeWidth = 50;
};
closed = 0;
nodes = (
(1083,193,l)
);
}
);
width = 600;
}
);
unicode = 115;
}
{
glyphname = t;
layers = (
{
backgroundImage = {
crop = (313.059,96.059,26.118,88.235);
imagePath = "img/roman/roman-lower-case.png";
locked = 1;
pos = (-5941,-2539);
scale = (18.9664,18.9664);
};
layerId = m01;
shapes = (
{
attr = {
lineCapEnd = "1";
lineCapStart = "1";
strokeWidth = 50;
};
closed = 0;
nodes = (
(35,451,l),
(150,439,o),
(273,437,o),
(407,449,c)
);
},
{
attr = {
lineCapEnd = "1";
lineCapStart = "1";
strokeWidth = 50;
};
closed = 0;
nodes = (
(224,797,l),
(218,415,o),
(211,209,o),
(217,124,cs),
(225,17,o),
(261,0,o),
(291,0,cs),
(330,0,o),
(369,29,o),
(395,64,cs)
);
}
);
width = 462;
}
);
metricLeft = f;
metricRight = z;
unicode = 116;
}
{
glyphname = u;
layers = (
{
backgroundImage = {
crop = (68.951,2.346,37.037,92.593);
imagePath = "img/roman/roman-lower-case.png";
locked = 1;
pos = (-1169,-638);
scale = (16.2,16.2);
};
layerId = m01;
shapes = (
{
attr = {
lineCapEnd = 1;
lineCapStart = 1;
strokeWidth = 50;
};
closed = 0;
nodes = (
(74,450,l),
(74,391,o),
(28,84,o),
(150,34,cs),
(257,-10,o),
(397,196,o),
(410,211,c)
);
},
{
attr = {
lineCapEnd = 1;
lineCapStart = 1;
strokeWidth = 50;
};
closed = 0;
nodes = (
(462,34,l),
(438,100,o),
(394,231,o),
(397,456,c)
);
}
);
width = 507;
}
);
metricLeft = "=n-30";
metricRight = "=n-30";
unicode = 117;
}
{
glyphname = v;
kernLeft = v;
kernRight = v;
layers = (
{
backgroundImage = {
crop = (190.928,1140.142,34.641,86.602);
imagePath = "img/roman/roman-lower-case.png";
pos = (-3365,-20348);
scale = (17.3206,17.3206);
};
layerId = m01;
shapes = (
{
attr = {
lineCapEnd = 1;
lineCapStart = 1;
strokeWidth = 50;
};
closed = 0;
nodes = (
(55,436,l),
(120,323,o),
(182,127,o),
(253,7,cs),
(262,-7,o),
(267,-13,o),
(274,7,cs),
(297,68,o),
(369,323,o),
(445,451,cs)
);
}
);
width = 500;
}
);
unicode = 118;
}
{
glyphname = w;
kernLeft = v;
kernRight = v;
layers = (
{
backgroundImage = {
crop = (1098.968,703.883,36.408,91.019);
imagePath = "img/roman/roman-lower-case.png";
locked = 1;
pos = (-22108,-14925);
scale = (20.1087,20.1087);
};
layerId = m01;
shapes = (
{
attr = {
lineCapEnd = "1";
lineCapStart = "1";
strokeWidth = 50;
};
closed = 0;
nodes = (
(55,436,l),
(100,306,o),
(122,142,o),
(161,22,cs),
(166,8,o),
(172,2,o),
(178,22,cs),
(196,80,o),
(260,260,o),
(339,392,cs),
(345,403,o),
(351,403,o),
(357,392,cs),
(417,276,o),
(458,113,o),
(499,7,cs),
(507,-15,o),
(508,-12,o),
(516,7,cs),
(559,107,o),
(619,323,o),
(676,462,cs)
);
}
);
width = 731;
}
);
metricLeft = "=v";
metricRight = "=v";
unicode = 119;
}
{
glyphname = x;
layers = (
{
backgroundImage = {
crop = (679.672,1438.35,36.408,91.019);
imagePath = "img/roman/roman-lower-case.png";
locked = 1;
pos = (-11234,-24304);
scale = (16.48,16.48);
};
layerId = m01;
shapes = (
{
attr = {
lineCapEnd = 1;
lineCapStart = 1;
strokeWidth = 50;
};
closed = 0;
nodes = (
(115,428,l),
(221,319,o),
(287,217,o),
(490,45,cs)
);
},
{
attr = {
lineCapEnd = 1;
lineCapStart = 1;
strokeWidth = 50;
};
closed = 0;
nodes = (
(75,26,l),
(166,173,o),
(277,258,o),
(445,424,cs)
);
}
);
width = 565;
}
);
unicode = 120;
}
{
glyphname = y;
layers = (
{
backgroundImage = {
crop = (158.313,197.937,36.408,91.019);
imagePath = "img/roman/roman-lower-case.png";
locked = 1;
pos = (-2609,-3862);
scale = (16.48,16.48);
};
layerId = m01;
shapes = (
{
attr = {
lineCapEnd = 2;
lineCapStart = 1;
strokeWidth = 50;
};
closed = 0;
nodes = (
(134,445,l),
(157,333,o),
(202,144,o),
(242,97,cs),
(284,47,o),
(352,56,o),
(371,136,c)
);
},
{
attr = {
lineCapEnd = 1;
lineCapStart = 1;
strokeWidth = 50;
};
closed = 0;
nodes = (
(476,457,l),
(437,313,o),
(257,-199,o),
(186,-398,cs)
);
}
);
width = 600;
}
);
unicode = 121;
}
{
glyphname = z;
layers = (
{
backgroundImage = {
crop = (105.279,4.005,36.408,91.019);
imagePath = "img/roman/roman-lower-case.png";
locked = 1;
pos = (-2084,-828);
scale = (19.3241,19.3241);
};
layerId = m01;
shapes = (
{
attr = {
lineCapEnd = 1;
lineCapStart = 1;
strokeWidth = 50;
};
closed = 0;
nodes = (
(49,435,l),
(158,447,o),
(306,452,o),
(381,452,cs),
(422,452,o),
(455,437,o),
(412,381,cs),
(338,286,o),
(240,179,o),
(149,70,cs),
(116,31,o),
(131,0,o),
(166,-1,cs),
(247,-3,o),
(447,2,o),
(529,8,cs)
);
}
);
width = 600;
}
);
unicode = 122;
}
{
glyphname = bar;
layers = (
{
layerId = m01;
shapes = (
{
attr = {
lineCapEnd = 1;
lineCapStart = 1;
strokeWidth = 50;
};
closed = 0;
nodes = (
(103,802,l),
(99,717,o),
(106,171,o),
(99,-4,cs)
);
}
);
width = 200;
}
);
unicode = 124;
}
{
glyphname = braceright;
layers = (
{
backgroundImage = {
crop = (1307.039,37.985,36.408,91.019);
imagePath = "img/roman/roman-symbols.png";
locked = 1;
pos = (-21540,-1226);
scale = (16.48,16.48);
};
layerId = m01;
shapes = (
{
attr = {
lineCapEnd = 1;
lineCapStart = 1;
strokeWidth = 50;
};
closed = 0;
nodes = (
(160,778,l),
(196,806,o),
(199,800,o),
(228,800,cs),
(304,800,o),
(414,701,o),
(416,607,cs),
(418,525,o),
(332,450,o),
(332,371,cs),
(332,300,o),
(412,277,o),
(430,254,cs),
(435,249,o),
(433,245,o),
(430,238,cs),
(417,209,o),
(347,170,o),
(357,105,cs),
(371,16,o),
(438,-207,o),
(416,-270,cs),
(395,-329,o),
(301,-432,o),
(153,-405,c)
);
}
);
width = 600;
}
);
unicode = 125;
}
{
glyphname = asciitilde;
layers = (
{
backgroundImage = {
crop = (801.774,326.116,59.235,80.775);
imagePath = "img/roman/roman-symbols.png";
locked = 1;
pos = (-15016,-6696);
scale = (18.5701,18.5701);
};
layerId = m01;
shapes = (
{
attr = {
lineCapEnd = 1;
lineCapStart = 1;
strokeWidth = 50;
};
closed = 0;
nodes = (
(75,315,l),
(118,376,o),
(175,412,o),
(251,412,cs),
(389,412,o),
(434,295,o),
(601,295,cs),
(676,295,o),
(725,318,o),
(757,359,cs)
);
}
);
width = 832;
}
);
unicode = 126;
}
{
glyphname = endash;
layers = (
{
layerId = m01;
shapes = (
{
attr = {
lineCapEnd = "1";
lineCapStart = "1";
strokeWidth = 50;
};
closed = 0;
nodes = (
(75,310,l),
(157,324,o),
(398,326,o),
(475,322,cs)
);
}
);
width = 550;
}
);
unicode = 8211;
}
{
glyphname = emdash;
layers = (
{
backgroundImage = {
crop = (1180.461,515.959,109.223,91.019);
imagePath = "img/roman/roman-symbols.png";
locked = 1;
pos = (-19444,-9103);
scale = (16.48,16.48);
};
layerId = m01;
shapes = (
{
attr = {
lineCapEnd = 1;
lineCapStart = 1;
strokeWidth = 50;
};
closed = 0;
nodes = (
(75,301,l),
(376,324,o),
(1448,326,o),
(1731,311,cs)
);
}
);
width = 1806;
}
);
unicode = 8212;
}
{
glyphname = quotedblleft;
layers = (
{
backgroundImage = {
crop = (401.214,329.187,36.408,91.019);
imagePath = "img/roman/roman-symbols.png";
locked = 1;
pos = (-6612,-6025);
scale = (16.48,16.48);
};
layerId = m01;
shapes = (
{
attr = {
lineCapEnd = 1;
lineCapStart = 1;
strokeWidth = 50;
};
closed = 0;
nodes = (
(274,727,l),
(215,690,o),
(146,631,o),
(162,563,cs),
(175,509,o),
(233,514,o),
(251,535,cs)
);
},
{
attr = {
lineCapEnd = 1;
lineCapStart = 1;
strokeWidth = 50;
};
closed = 0;
nodes = (
(462,701,l),
(406,654,o),
(381,593,o),
(381,551,cs),
(381,514,o),
(406,482,o),
(470,486,cs)
);
}
);
width = 600;
}
);
unicode = 8220;
}
{
glyphname = minus;
layers = (
{
layerId = m01;
shapes = (
{
attr = {
lineCapEnd = 1;
lineCapStart = 1;
strokeWidth = 50;
};
closed = 0;
nodes = (
(88,275,l),
(229,281,o),
(358,288,o),
(484,281,c)
);
}
);
width = 600;
}
);
unicode = 8722;
}
{
glyphname = greaterequal;
layers = (
{
layerId = m01;
shapes = (
{
attr = {
lineCapEnd = 1;
lineCapStart = 1;
strokeWidth = 50;
};
closed = 0;
nodes = (
(82,398,l),
(353,322,o),
(489,343,o),
(489,289,cs),
(489,236,o),
(321,254,o),
(109,162,c)
);
},
{
attr = {
lineCapEnd = 1;
lineCapStart = 1;
strokeWidth = 50;
};
closed = 0;
nodes = (
(527,68,l),
(97,68,l)
);
}
);
width = 582;
}
);
unicode = 8805;
}
{
glyphname = hedgehog;
layers = (
{
backgroundImage = {
crop = (3.005,0,976.709,608);
imagePath = "img/Hedgy.jpg";
locked = 1;
pos = (-4,-18);
scale = (1.331,1.331);
};
layerId = m01;
shapes = (
{
closed = 1;
nodes = (
(235,10,o),
(327,97,o),
(327,175,cs),
(327,247,o),
(247,252,o),
(209,252,cs),
(24,252,o),
(10,137,o),
(10,103,cs),
(10,68,o),
(25,13,o),
(105,12,cs)
);
},
{
closed = 1;
nodes = (
(55,165,o),
(67,188,o),
(85,201,cs),
(103,214,o),
(160,230,o),
(165,225,cs),
(170,220,o),
(120,194,o),
(109,188,cs),
(96,181,o),
(67,153,o),
(58,162,cs)
);
},
{
attr = {
lineCapEnd = 1;
lineCapStart = 1;
strokeWidth = 20;
};
closed = 0;
nodes = (
(876,723,l),
(628,537,o),
(317,314,o),
(234,230,cs)
);
},
{
attr = {
lineCapEnd = 1;
lineCapStart = 1;
strokeWidth = 20;
};
closed = 0;
nodes = (
(925,708,l),
(823,642,o),
(491,423,o),
(455,395,cs)
);
},
{
attr = {
lineCapEnd = 1;
lineCapStart = 1;
strokeWidth = 20;
};
closed = 0;
nodes = (
(1282,79,l),
(1165,73,o),
(1047,76,o),
(912,81,cs),
(878,82,o),
(843,84,o),
(808,85,cs),
(713,88,o),
(610,92,o),
(510,93,cs),
(478,94,o),
(451,94,o),
(419,94,cs),
(367,94,o),
(314,93,o),
(262,91,cs)
);
},
{
attr = {
lineCapEnd = 1;
lineCapStart = 1;
strokeWidth = 20;
};
closed = 0;
nodes = (
(1007,708,l),
(905,653,o),
(502,410,o),
(466,382,cs)
);
},
{
attr = {
lineCapEnd = 1;
lineCapStart = 1;
strokeWidth = 20;
};
closed = 0;
nodes = (
(1081,691,l),
(979,630,o),
(538,390,o),
(502,362,cs)
);
},
{
attr = {
lineCapEnd = 1;
lineCapStart = 1;
strokeWidth = 20;
};
closed = 0;
nodes = (
(1117,639,l),
(1015,586,o),
(645,427,o),
(528,352,cs)
);
},
{
closed = 1;
nodes = (
(311,294,o),
(322,313,o),
(322,354,cs),
(322,393,o),
(314,414,o),
(302,414,cs),
(289,414,o),
(276,387,o),
(276,354,cs),
(276,321,o),
(282,294,o),
(299,294,cs)
);
},
{
closed = 1;
nodes = (
(410,290,o),
(418,315,o),
(418,347,cs),
(418,383,o),
(415,403,o),
(395,403,cs),
(378,403,o),
(366,378,o),
(366,347,cs),
(366,315,o),
(380,290,o),
(396,290,cs)
);
},
{
closed = 1;
nodes = (
(341,4,o),
(360,8,o),
(388,8,cs),
(397,8,o),
(402,10,o),
(401,14,cs),
(396,27,o),
(385,47,o),
(362,51,cs),
(340,55,o),
(324,39,o),
(335,16,cs)
);
},
{
closed = 1;
nodes = (
(426,2,o),
(452,7,o),
(479,5,cs),
(485,5,o),
(488,6,o),
(488,10,cs),
(487,38,o),
(477,50,o),
(459,50,cs),
(439,50,o),
(411,32,o),
(419,16,cs)
);
},
{
closed = 1;
nodes = (
(715,3,o),
(739,6,o),
(772,7,cs),
(780,7,o),
(784,9,o),
(784,12,cs),
(781,30,o),
(766,58,o),
(747,58,cs),
(725,58,o),
(699,33,o),
(708,16,cs)
);
},
{
closed = 1;
nodes = (
(820,-3,o),
(828,0,o),
(873,1,cs),
(884,1,o),
(889,5,o),
(889,10,cs),
(889,37,o),
(864,48,o),
(845,48,cs),
(824,48,o),
(804,28,o),
(813,11,cs)
);
},
{
attr = {
lineCapEnd = 1;
lineCapStart = 1;
strokeWidth = 20;
};
closed = 0;
nodes = (
(392,19,l),
(419,94,l)
);
},
{
attr = {
lineCapEnd = 1;
lineCapStart = 1;
strokeWidth = 20;
};
closed = 0;
nodes = (
(479,16,l),
(510,93,l)
);
},
{
attr = {
lineCapEnd = 1;
lineCapStart = 1;
strokeWidth = 20;
};
closed = 0;
nodes = (
(775,19,l),
(792,45,o),
(803,66,o),
(808,85,c)
);
},
{
attr = {
lineCapEnd = 1;
lineCapStart = 1;
strokeWidth = 20;
};
closed = 0;
nodes = (
(881,16,l),
(912,81,l)
);
},
{
attr = {
lineCapEnd = "1";
lineCapStart = "1";
strokeWidth = 20;
};
closed = 0;
nodes = (
(1194,584,l),
(1004,509,o),
(700,403,o),
(572,335,cs)
);
},
{
attr = {
lineCapEnd = "1";
lineCapStart = "1";
strokeWidth = 20;
};
closed = 0;
nodes = (
(1181,524,l),
(873,406,o),
(653,368,o),
(542,290,cs)
);
},
{
attr = {
lineCapEnd = "1";
lineCapStart = "1";
strokeWidth = 10;
};
closed = 0;
nodes = (
(875,395,l),
(752,354,o),
(708,355,o),
(578,294,cs)
);
},
{
attr = {
lineCapEnd = "1";
lineCapStart = "1";
strokeWidth = 20;
};
closed = 0;
nodes = (
(1215,458,l),
(1014,393,o),
(713,334,o),
(570,274,cs)
);
},
{
attr = {
lineCapEnd = "1";
lineCapStart = "1";
strokeWidth = 20;
};
closed = 0;
nodes = (
(1230,388,l),
(995,335,o),
(771,321,o),
(556,249,cs)
);
},
{
attr = {
lineCapEnd = "1";
lineCapStart = "1";
strokeWidth = 20;
};
closed = 0;
nodes = (
(1249,321,l),
(998,284,o),
(810,280,o),
(595,220,c)
);
},
{
attr = {
lineCapEnd = "1";
lineCapStart = "1";
strokeWidth = 20;
};
closed = 0;
nodes = (
(1250,258,l),
(1004,225,o),
(803,258,o),
(573,194,cs)
);
},
{
attr = {
lineCapEnd = "1";
lineCapStart = "1";
strokeWidth = 20;
};
closed = 0;
nodes = (
(1215,188,l),
(969,182,o),
(786,201,o),
(606,185,cs)
);
},
{
attr = {
lineCapEnd = "1";
lineCapStart = "1";
strokeWidth = 20;
};
closed = 0;
nodes = (
(1270,128,l),
(1024,129,o),
(815,187,o),
(562,137,cs)
);
},
{
attr = {
lineCapEnd = "1";
lineCapStart = "1";
strokeWidth = 20;
};
closed = 0;
nodes = (
(1270,93,l),
(1060,102,o),
(772,126,o),
(563,116,cs)
);
},
{
attr = {
lineCapEnd = "1";
lineCapStart = "1";
strokeWidth = 10;
};
closed = 0;
nodes = (
(944,307,l),
(813,301,o),
(715,278,o),
(578,234,cs)
);
},
{
attr = {
lineCapEnd = "1";
lineCapStart = "1";
strokeWidth = 10;
};
closed = 0;
nodes = (
(894,132,l),
(777,137,o),
(731,142,o),
(562,126,cs)
);
},
{
attr = {
lineCapEnd = "1";
lineCapStart = "1";
strokeWidth = 10;
};
closed = 0;
nodes = (
(934,355,l),
(811,334,o),
(714,310,o),
(582,268,cs)
);
},
{
attr = {
lineCapEnd = "1";
lineCapStart = "1";
strokeWidth = 10;
};
closed = 0;
nodes = (
(954,217,l),
(823,211,o),
(759,206,o),
(627,201,cs)
);
},
{
attr = {
lineCapEnd = "1";
lineCapStart = "1";
strokeWidth = 10;
};
closed = 0;
nodes = (
(869,172,l),
(752,177,o),
(741,176,o),
(572,160,cs)
);
},
{
attr = {
lineCapEnd = "1";
lineCapStart = "1";
strokeWidth = 10;
};
closed = 0;
nodes = (
(888,493,l),
(735,432,o),
(691,413,o),
(541,332,cs)
);
},
{
attr = {
lineCapEnd = "1";
lineCapStart = "1";
strokeWidth = 10;
};
closed = 0;
nodes = (
(874,610,l),
(719,514,o),
(630,458,o),
(500,381,cs)
);
}
);
width = 1300;
}
);
unicode = 129428;
}
{
glyphname = a.001;
layers = (
{
backgroundImage = {
crop = (378.177,1507.428,29.751,74.007);
imagePath = "img/roman/roman-lower-case.png";
locked = 1;
pos = (-7145,-29039);
scale = (18.9046,18.9046);
};
layerId = m01;
shapes = (
{
attr = {
lineCapEnd = 1;
lineCapStart = 1;
strokeWidth = 50;
};
closed = 0;
nodes = (
(101,370,l),
(148,420,o),
(219,475,o),
(308,475,cs),
(445,475,o),
(466,310,o),
(472,156,cs),
(473,122,o),
(468,69,o),
(502,16,c)
);
},
{
attr = {
strokeWidth = 50;
};
closed = 1;
nodes = (
(75,-32,o),
(75,96,cs),
(75,188,o),
(163,266,o),
(315,266,cs),
(403,266,o),
(471,240,o),
(471,156,cs),
(471,74,o),
(429,37,o),
(308,11,cs),
(244,-3,o)
);
}
);
width = 571;
}
);
metricLeft = "=a";
metricRight = "=a";
}
{
glyphname = a.002;
layers = (
{
backgroundImage = {
crop = (282.658,1505.75,29.751,74.007);
imagePath = "img/roman/roman-lower-case.png";
locked = 1;
pos = (-5272,-28446);
scale = (18.5321,18.5321);
};
layerId = m01;
shapes = (
{
attr = {
lineCapEnd = 1;
lineCapStart = 1;
strokeWidth = 50;
};
closed = 0;
nodes = (
(45,346,l),
(83,420,o),
(174,463,o),
(244,463,cs),
(383,463,o),
(411,274,o),
(422,158,cs),
(426,120,o),
(414,51,o),
(449,-2,c)
);
},
{
attr = {
strokeWidth = 50;
};
closed = 1;
nodes = (
(94,-1,o),
(94,65,cs),
(94,133,o),
(238,249,o),
(334,249,cs),
(394,249,o),
(422,204,o),
(422,158,cs),
(422,36,o),
(402,-8,o),
(285,-8,cs),
(233,-8,o)
);
}
);
width = 518;
}
);
metricLeft = "=a-30";
metricRight = a;
}
{
glyphname = ampersand.001;
layers = (
{
backgroundImage = {
crop = (52.975,223.924,52.278,94.937);
imagePath = "img/roman/roman-symbols.png";
locked = 1;
pos = (-885,-4386);
scale = (16.6011,16.6011);
};
layerId = m01;
shapes = (
{
attr = {
lineCapEnd = 2;
lineCapStart = 2;
strokeWidth = 50;
};
closed = 0;
nodes = (
(378,599,l),
(442,623,o),
(501,666,o),
(501,721,cs),
(501,779,o),
(435,809,o),
(378,809,cs),
(287,809,o),
(173,729,o),
(173,627,cs),
(173,564,o),
(217,519,o),
(301,519,cs),
(307,519,o),
(309,515,o),
(301,514,cs),
(166,497,o),
(68,423,o),
(68,280,cs),
(68,124,o),
(193,-6,o),
(313,-6,cs),
(447,-6,o),
(627,152,o),
(627,284,cs),
(627,335,o),
(599,376,o),
(556,420,c)
);
},
{
attr = {
lineCapEnd = 2;
lineCapStart = 2;
strokeWidth = 50;
};
closed = 0;
nodes = (
(402,351,l),
(442,391,o),
(503,413,o),
(556,420,cs),
(633,431,o),
(741,414,o),
(773,568,cs)
);
}
);
width = 816;
},
{
associatedMasterId = m01;
backgroundImage = {
crop = (52.975,223.924,52.278,94.937);
imagePath = "img/roman/roman-symbols.png";
locked = 1;
pos = (-837,-4138);
scale = (15.8,15.8);
};
layerId = "ABFF51F7-8104-4605-A629-2B6C113934F6";
name = "Oct 3, 24, 09:24";
shapes = (
{
attr = {
lineCapEnd = 2;
lineCapStart = 2;
strokeWidth = 50;
};
closed = 0;
nodes = (
(365,606,l),
(426,629,o),
(482,670,o),
(482,722,cs),
(482,777,o),
(419,806,o),
(365,806,cs),
(278,806,o),
(170,730,o),
(170,633,cs),
(170,573,o),
(212,530,o),
(292,530,cs),
(297,530,o),
(299,526,o),
(292,525,cs),
(163,509,o),
(70,439,o),
(70,303,cs),
(70,154,o),
(189,30,o),
(303,30,cs),
(431,30,o),
(602,181,o),
(602,306,cs),
(602,355,o),
(575,394,o),
(534,436,c)
);
},
{
attr = {
lineCapEnd = 2;
lineCapStart = 2;
strokeWidth = 50;
};
closed = 0;
nodes = (
(388,370,l),
(426,408,o),
(484,430,o),
(534,436,cs),
(559,439,o),
(591,438,o),
(642,433,cs),
(736,424,o),
(759,467,o),
(764,477,cs)
);
}
);
width = 826;
}
);
}
{
glyphname = ampersand.002;
layers = (
{
backgroundImage = {
crop = (378.002,223.712,48.667,89.461);
imagePath = "img/roman/roman-symbols.png";
locked = 1;
pos = (-6473,-4447);
scale = (17.1041,17.1041);
};
layerId = m01;
shapes = (
{
attr = {
lineCapEnd = 1;
lineCapStart = 2;
strokeWidth = 50;
};
closed = 0;
nodes = (
(464,676,l),
(486,688,o),
(501,702,o),
(501,727,cs),
(501,767,o),
(463,813,o),
(380,813,cs),
(259,813,o),
(173,715,o),
(173,629,cs),
(173,574,o),
(209,515,o),
(317,515,cs),
(323,515,o),
(325,510,o),
(317,510,cs),
(132,510,o),
(43,375,o),
(43,247,cs),
(43,84,o),
(193,-6,o),
(331,-6,cs),
(447,-6,o),
(593,58,o),
(596,222,cs),
(597,276,o),
(582,340,o),
(527,389,c)
);
},
{
attr = {
lineCapEnd = 2;
lineCapStart = 2;
strokeWidth = 50;
};
closed = 0;
nodes = (
(372,256,l),
(412,358,o),
(473,383,o),
(526,390,cs),
(603,401,o),
(750,391,o),
(763,527,cs)
);
}
);
width = 816;
},
{
associatedMasterId = m01;
backgroundImage = {
crop = (52.975,223.924,52.278,94.937);
imagePath = "img/roman/roman-symbols.png";
locked = 1;
pos = (-837,-4138);
scale = (15.8,15.8);
};
layerId = "ABFF51F7-8104-4605-A629-2B6C113934F6";
name = "Oct 3, 24, 09:24";
shapes = (
{
attr = {
lineCapEnd = 2;
lineCapStart = 2;
strokeWidth = 50;
};
closed = 0;
nodes = (
(365,606,l),
(426,629,o),
(482,670,o),
(482,722,cs),
(482,777,o),
(419,806,o),
(365,806,cs),
(278,806,o),
(170,730,o),
(170,633,cs),
(170,573,o),
(212,530,o),
(292,530,cs),
(297,530,o),
(299,526,o),
(292,525,cs),
(163,509,o),
(70,439,o),
(70,303,cs),
(70,154,o),
(189,30,o),
(303,30,cs),
(431,30,o),
(602,181,o),
(602,306,cs),
(602,355,o),
(575,394,o),
(534,436,c)
);
},
{
attr = {
lineCapEnd = 2;
lineCapStart = 2;
strokeWidth = 50;
};
closed = 0;
nodes = (
(388,370,l),
(426,408,o),
(484,430,o),
(534,436,cs),
(559,439,o),
(591,438,o),
(642,433,cs),
(736,424,o),
(759,467,o),
(764,477,cs)
);
}
);
width = 826;
}
);
}
{
glyphname = asciitilde.large;
layers = (
{
backgroundImage = {
crop = (801.774,326.116,59.235,80.775);
imagePath = "img/roman/roman-symbols.png";
locked = 1;
pos = (-14889,-6656);
scale = (18.5701,18.5701);
};
layerId = m01;
shapes = (
{
attr = {
lineCapEnd = 1;
lineCapStart = 1;
strokeWidth = 50;
};
closed = 0;
nodes = (
(60,337,l),
(99,426,o),
(183,480,o),
(299,480,cs),
(499,480,o),
(566,307,o),
(813,307,cs),
(923,307,o),
(996,341,o),
(1043,401,cs)
);
}
);
width = 1100;
}
);
}
{
glyphname = asterisk.001;
layers = (
{
backgroundImage = {
crop = (298.79,128.928,34.987,87.468);
imagePath = "img/roman/roman-symbols.png";
locked = 1;
pos = (-5124,-2811);
scale = (17.1492,17.1492);
};
layerId = m01;
shapes = (
{
attr = {
lineCapEnd = 1;
lineCapStart = 1;
strokeWidth = 50;
};
closed = 0;
nodes = (
(302,838,l),
(301,721,o),
(302,604,o),
(306,487,c)
);
},
{
attr = {
lineCapEnd = 1;
lineCapStart = 1;
strokeWidth = 50;
};
closed = 0;
nodes = (
(434,745,l),
(328,697,o),
(240,641,o),
(153,573,c)
);
},
{
attr = {
lineCapEnd = 1;
lineCapStart = 1;
strokeWidth = 50;
};
closed = 0;
nodes = (
(461,583,l),
(357,655,o),
(243,707,o),
(127,752,c)
);
}
);
width = 600;
}
);
}
{
glyphname = b.001;
layers = (
{
backgroundImage = {
crop = (1184.064,1444.126,25.327,78.332);
imagePath = "img/roman/roman-lower-case.png";
locked = 1;
pos = (-23824,-29704);
scale = (20.1261,20.1261);
};
layerId = m01;
shapes = (
{
attr = {
lineCapEnd = 1;
lineCapStart = 1;
strokeWidth = 50;
};
closed = 0;
nodes = (
(48,840,l),
(112,560,o),
(96,117,o),
(99,-43,c)
);
},
{
attr = {
lineCapEnd = 1;
lineCapStart = 1;
strokeWidth = 50;
};
closed = 0;
nodes = (
(105,17,l),
(135,1,o),
(173,-9,o),
(214,-9,cs),
(359,-9,o),
(448,116,o),
(448,244,cs),
(448,323,o),
(414,442,o),
(323,442,cs),
(256,442,o),
(161,379,o),
(107,310,cs)
);
}
);
width = 503;
}
);
metricLeft = "=n-47";
metricRight = "=o";
}
{
glyphname = c.001;
layers = (
{
backgroundImage = {
crop = (1239.442,945.631,30.4,91.019);
imagePath = "img/roman/roman-lower-case.png";
locked = 1;
pos = (-20410,-16184);
scale = (16.48,16.48);
};
layerId = m01;
shapes = (
{
attr = {
lineCapEnd = 1;
lineCapStart = 1;
strokeWidth = 50;
};
closed = 0;
nodes = (
(382,366,l),
(362,505,o),
(65,483,o),
(65,255,cs),
(65,78,o),
(245,-89,o),
(482,44,cs)
);
}
);
width = 537;
}
);
metricLeft = "=c";
metricRight = "=c";
}
{
glyphname = d.001;
layers = (
{
backgroundImage = {
crop = (245.689,883.942,31.747,77.684);
imagePath = "img/roman/roman-lower-case.png";
locked = 1;
pos = (-4224,-17668);
scale = (17.1458,19.309);
};
layerId = m01;
shapes = (
{
attr = {
lineCapEnd = 1;
lineCapStart = 1;
strokeWidth = 50;
};
closed = 0;
nodes = (
(375,839,l),
(421,503,o),
(382,65,o),
(487,-19,c)
);
},
{
attr = {
lineCapEnd = 1;
lineCapStart = 1;
strokeWidth = 50;
};
closed = 0;
nodes = (
(399,414,l),
(167,524,o),
(55,356,o),
(55,196,cs),
(55,57,o),
(137,-142,o),
(421,113,cs)
);
}
);
width = 556;
}
);
metricLeft = "=o";
metricRight = "=a";
}
{
glyphname = e.001;
layers = (
{
backgroundImage = {
imagePath = "img/roman/roman-lower-case.png";
pos = (-3484,-2425);
scale = (18.5484,18.5484);
};
layerId = m01;
shapes = (
{
attr = {
lineCapEnd = 1;
lineCapStart = 1;
strokeWidth = 50;
};
closed = 0;
nodes = (
(68,283,l),
(385,242,o),
(408,279,o),
(408,327,cs),
(408,398,o),
(359,451,o),
(280,451,cs),
(184,451,o),
(57,374,o),
(55,216,cs),
(54,136,o),
(95,-5,o),
(279,-5,cs),
(355,-5,o),
(407,19,o),
(434,43,cs)
);
}
);
width = 489;
}
);
metricLeft = "=o";
metricRight = "=o";
}
{
glyphname = eight.001;
layers = (
{
backgroundImage = {
imagePath = "img/roman/roman-numbers.png";
pos = (-6116,-658);
scale = (16.48,16.48);
};
layerId = m01;
shapes = (
{
attr = {
strokeWidth = 50;
};
closed = 1;
nodes = (
(152,781,o),
(152,657,o),
(152,634,cs),
(152,396,o),
(494,523,o),
(491,234,cs),
(489,65,o),
(310,26,o),
(254,28,cs),
(186,30,o),
(86,65,o),
(86,203,cs),
(86,402,o),
(477,484,o),
(477,664,cs),
(477,730,o),
(425,776,o),
(318,778,cs)
);
}
);
width = 600;
}
);
}
{
glyphname = f.001;
layers = (
{
backgroundImage = {
crop = (273.908,4.248,22.269,91.019);
imagePath = "img/roman/roman-lower-case.png";
locked = 1;
pos = (-4527,-670);
scale = (16.48,16.48);
};
layerId = m01;
shapes = (
{
attr = {
lineCapEnd = 1;
lineCapStart = 1;
strokeWidth = 50;
};
closed = 0;
nodes = (
(324,792,l),
(299,828,o),
(261,846,o),
(222,846,cs),
(146,846,o),
(101,778,o),
(101,662,cs),
(101,489,o),
(204,94,o),
(181,-321,cs)
);
},
{
attr = {
lineCapEnd = 1;
lineCapStart = 1;
strokeWidth = 50;
};
closed = 0;
nodes = (
(35,359,l),
(114,387,o),
(194,389,o),
(273,389,c)
);
}
);
width = 349;
}
);
metricLeft = "=t";
metricRight = "=r-30";
}
{
glyphname = g.001;
kernLeft = o;
kernRight = o;
layers = (
{
backgroundImage = {
crop = (596.712,1089.278,33.764,80.775);
imagePath = "img/roman/roman-lower-case.png";
locked = 1;
pos = (-11156,-20828);
scale = (18.5701,18.5701);
};
layerId = m01;
shapes = (
{
attr = {
lineCapEnd = 1;
lineCapStart = 1;
strokeWidth = 50;
};
closed = 0;
nodes = (
(375,394,l),
(318,414,o),
(279,419,o),
(252,419,cs),
(133,419,o),
(55,325,o),
(55,227,cs),
(55,115,o),
(159,27,o),
(262,85,cs),
(314,114,o),
(350,172,o),
(350,243,cs),
(350,343,o),
(279,401,o),
(252,419,c)
);
},
{
attr = {
lineCapEnd = 1;
lineCapStart = 1;
strokeWidth = 50;
};
closed = 0;
nodes = (
(262,85,l),
(212,54,o),
(254,8,o),
(289,-19,cs),
(355,-69,o),
(503,-185,o),
(503,-349,cs),
(503,-474,o),
(415,-565,o),
(257,-565,cs),
(61,-565,o),
(35,-422,o),
(35,-344,cs),
(35,-187,o),
(141,-21,o),
(287,-21,c)
);
}
);
width = 408;
}
);
metricLeft = "=o-20";
metricRight = "=o-150";
}
{
glyphname = g.002;
kernLeft = o;
kernRight = o;
layers = (
{
backgroundImage = {
crop = (612.813,1531.871,38.341,80.775);
imagePath = "img/roman/roman-lower-case.png";
locked = 1;
pos = (-11495,-29047);
scale = (18.5701,18.5701);
};
layerId = m01;
shapes = (
{
attr = {
lineCapEnd = 1;
lineCapStart = 1;
strokeWidth = 50;
};
closed = 0;
nodes = (
(401,449,l),
(325,477,o),
(235,463,o),
(176,435,cs),
(78,389,o),
(57,301,o),
(57,243,cs),
(57,147,o),
(116,28,o),
(224,40,cs),
(321,51,o),
(398,162,o),
(398,261,cs),
(398,333,o),
(359,465,o),
(177,435,c)
);
},
{
attr = {
lineCapEnd = 1;
lineCapStart = 1;
strokeWidth = 50;
};
closed = 0;
nodes = (
(224,40,l),
(171,27,o),
(153,-1,o),
(257,-1,cs),
(411,-1,o),
(528,-151,o),
(528,-296,cs),
(528,-445,o),
(403,-551,o),
(222,-551,cs),
(-28,-551,o),
(-40,-348,o),
(-40,-294,cs),
(-40,-99,o),
(118,0,o),
(257,-1,c)
);
}
);
width = 453;
}
);
metricLeft = "=o-95";
metricRight = "=o-130";
}
{
glyphname = h.001;
layers = (
{
backgroundImage = {
crop = (1136.796,1107.986,30.754,85.744);
imagePath = "img/roman/roman-lower-case.png";
locked = 1;
pos = (-19887,-19983);
scale = (17.4939,17.4939);
};
layerId = m01;
shapes = (
{
attr = {
lineCapEnd = "1";
lineCapStart = "1";
strokeWidth = 50;
};
closed = 0;
nodes = (
(65,762,l),
(97,620,o),
(103,121,o),
(109,19,cs),
(110,-2,o),
(112,3,o),
(111,19,cs),
(96,375,o),
(186,413,o),
(277,413,c),
(396,406,o),
(431,89,o),
(423,-61,cs)
);
}
);
width = 499;
}
);
metricLeft = "=n-30";
metricRight = "=n";
}
{
glyphname = j.001;
layers = (
{
backgroundImage = {
crop = (1187.114,947.958,10.333,83.33);
imagePath = "img/roman/roman-lower-case.png";
locked = 1;
pos = (-21338,-17664);
scale = (18.0008,18.0008);
};
layerId = m01;
shapes = (
{
attr = {
strokeWidth = 50;
};
closed = 1;
nodes = (
(126,713,o),
(87,786,o),
(111,791,cs),
(134,796,o),
(135,729,o),
(129,718,cs)
);
},
{
attr = {
lineCapEnd = 1;
lineCapStart = 1;
strokeWidth = 50;
};
closed = 0;
nodes = (
(98,527,l),
(104,309,o),
(119,265,o),
(132,155,cs),
(138,102,o),
(154,-31,o),
(154,-96,cs),
(154,-190,o),
(138,-308,o),
(35,-522,cs)
);
}
);
width = 229;
}
);
metricLeft = "=i-60";
metricRight = "=i";
}
{
glyphname = k.001;
layers = (
{
backgroundImage = {
crop = (616.626,1345.146,36.408,91.019);
imagePath = "img/roman/roman-lower-case.png";
locked = 1;
pos = (-11938,-26778);
scale = (19.3241,19.3241);
};
layerId = m01;
shapes = (
{
attr = {
lineCapEnd = "1";
lineCapStart = "1";
strokeWidth = 50;
};
closed = 0;
nodes = (
(95,756,l),
(96,615,o),
(105,416,o),
(105,240,cs),
(105,179,o),
(104,75,o),
(105,0,cs)
);
},
{
attr = {
lineCapEnd = "1";
lineCapStart = "1";
strokeWidth = 50;
};
closed = 0;
nodes = (
(424,452,l),
(329,353,o),
(252,242,o),
(120,242,cs),
(113,242,o),
(114,237,o),
(119,237,cs),
(328,237,o),
(295,26,o),
(548,-51,c)
);
}
);
width = 543;
},
{
associatedMasterId = m01;
backgroundImage = {
crop = (616.626,1345.146,36.408,91.019);
imagePath = "img/roman/roman-lower-case.png";
locked = 1;
pos = (-10166,-22768);
scale = (16.48,16.48);
};
layerId = "B44A64CB-E29D-4182-95B2-3C5BBFA976AD";
name = "Oct 4, 24, 11:17";
shapes = (
{
attr = {
lineCapEnd = 1;
lineCapStart = 1;
strokeWidth = 50;
};
closed = 0;
nodes = (
(95,696,l),
(96,576,o),
(100,423,o),
(104,273,c),
(156,273,o),
(97,273,o),
(202,273,c)
);
},
{
attr = {
lineCapEnd = 1;
lineCapStart = 1;
strokeWidth = 50;
};
closed = 0;
nodes = (
(104,68,ls),
(103,132,o),
(103,221,o),
(104,273,c)
);
},
{
attr = {
lineCapEnd = 1;
lineCapStart = 1;
strokeWidth = 50;
};
closed = 0;
nodes = (
(376,454,ls),
(293,359,o),
(257,330,o),
(202,277,c),
(284,142,o),
(363,81,o),
(482,25,c)
);
}
);
width = 547;
}
);
metricLeft = l;
metricRight = "=x-80";
}
{
glyphname = m.001;
layers = (
{
backgroundImage = {
crop = (1158.278,17.389,44.444,83.333);
imagePath = "img/roman/roman-lower-case.png";
locked = 1;
pos = (-23009,-1029);
scale = (19.8735,19.8735);
};
layerId = m01;
shapes = (
{
attr = {
lineCapEnd = 1;
lineCapStart = 1;
strokeWidth = 50;
};
closed = 0;
nodes = (
(813,-18,l),
(813,173,o),
(827,428,o),
(702,428,cs),
(579,428,o),
(482,180,o),
(482,8,cs),
(482,3,o),
(481,3,o),
(481,8,cs),
(477,194,o),
(505,455,o),
(369,455,cs),
(256,455,o),
(99,279,o),
(90,6,c)
);
},
{
attr = {
lineCapEnd = 1;
lineCapStart = 1;
strokeWidth = 50;
};
closed = 0;
nodes = (
(85,508,l),
(109,387,o),
(96,211,o),
(90,-1,cs)
);
}
);
width = 889;
}
);
metricLeft = "=n-10";
metricRight = "=m";
}
{
glyphname = minus.001;
layers = (
{
layerId = m01;
shapes = (
{
attr = {
lineCapEnd = "1";
lineCapStart = "1";
strokeWidth = 50;
};
closed = 0;
nodes = (
(559,368,l),
(414,370,o),
(274,384,o),
(75,354,cs)
);
}
);
width = 634;
}
);
}
{
glyphname = n.001;
layers = (
{
backgroundImage = {
crop = (496.435,324.781,31.277,85.77);
imagePath = "img/roman/roman-lower-case.png";
locked = 1;
pos = (-9230,-6704);
scale = (18.5592,18.5592);
};
layerId = m01;
shapes = (
{
attr = {
lineCapEnd = 1;
lineCapStart = 1;
strokeWidth = 50;
};
closed = 0;
nodes = (
(82,365,l),
(84,295,o),
(79,112,o),
(81,16,cs),
(81,-4,o),
(84,1,o),
(84,16,cs),
(84,191,o),
(200,465,o),
(327,465,cs),
(450,465,o),
(451,206,o),
(492,0,cs)
);
}
);
width = 547;
}
);
}
{
glyphname = o.001;
layers = (
{
backgroundImage = {
crop = (323.42,1236.631,26.712,79.975);
imagePath = "img/roman/roman-lower-case.png";
locked = 1;
pos = (-6353,-24784);
scale = (19.5174,19.5174);
};
layerId = m01;
shapes = (
{
attr = {
strokeWidth = 50;
};
closed = 1;
nodes = (
(333,-3,o),
(423,84,o),
(423,242,cs),
(423,378,o),
(364,454,o),
(263,454,cs),
(174,454,o),
(55,395,o),
(55,233,cs),
(55,151,o),
(87,-3,o),
(225,-3,cs)
);
}
);
width = 478;
}
);
metricLeft = "=o";
metricRight = "=o";
}
{
glyphname = r.001;
layers = (
{
backgroundImage = {
crop = (521.649,920.909,23.369,80.767);
imagePath = "img/roman/roman-lower-case.png";
locked = 1;
pos = (-9669,-17696);
scale = (18.5719,18.5719);
};
layerId = m01;
shapes = (
{
attr = {
lineCapEnd = 1;
lineCapStart = 1;
strokeWidth = 50;
};
closed = 0;
nodes = (
(80,437,l),
(88,365,o),
(103,153,o),
(103,63,cs),
(103,-18,o),
(103,9,o),
(103,-23,cs)
);
},
{
attr = {
lineCapEnd = 2;
lineCapStart = 1;
strokeWidth = 50;
};
closed = 0;
nodes = (
(431,502,l),
(195,590,o),
(97,133,o),
(103,63,cs)
);
}
);
width = 486;
}
);
metricLeft = "=n-15";
metricRight = "=r";
}
{
glyphname = s.001;
layers = (
{
backgroundImage = {
crop = (571.601,917.112,36.254,91.019);
imagePath = "img/roman/roman-lower-case.png";
locked = 1;
pos = (-9460,-15714);
scale = (16.55,16.48);
};
layerId = m01;
shapes = (
{
closed = 1;
nodes = (
);
},
{
attr = {
lineCapEnd = 1;
lineCapStart = 1;
strokeWidth = 50;
};
closed = 0;
nodes = (
(427,411,l),
(258,411,o),
(180,341,o),
(180,310,cs),
(180,263,o),
(271,251,o),
(339,231,cs),
(417,208,o),
(453,149,o),
(453,97,cs),
(453,-13,o),
(180,-33,o),
(180,74,cs)
);
}
);
width = 600;
}
);
}
{
glyphname = t.001;
layers = (
{
backgroundImage = {
crop = (809.161,575.091,26.599,83.122);
imagePath = "img/roman/roman-lower-case.png";
locked = 1;
pos = (-14610,-10978);
scale = (18.0458,18.0458);
};
layerId = m01;
shapes = (
{
attr = {
lineCapEnd = 1;
lineCapStart = 1;
strokeWidth = 50;
};
closed = 0;
nodes = (
(35,442,l),
(155,436,o),
(275,440,o),
(397,459,c)
);
},
{
attr = {
lineCapEnd = 1;
lineCapStart = 1;
strokeWidth = 50;
};
closed = 0;
nodes = (
(151,829,l),
(200,435,o),
(188,250,o),
(203,148,cs),
(223,12,o),
(305,-77,o),
(432,23,cs)
);
}
);
width = 487;
}
);
metricLeft = t;
metricRight = t;
}
